<svg viewBox="0 0 1004 160" version="1.1" xmlns="http://www.w3.org/2000/svg">
  <defs>
    <style>
      .cls-1 {
        fill: #01351c;
      }
    </style>
  </defs>
  
  <g>
    <g id="Layer_1">
      <g data-name="Layer_1" id="Layer_1-2">
        <g id="Layer_1-2">
          <g>
            <g>
              <path d="M244.3,125.1c-4.1,2.1-13,4.2-24.3,4.2-29.9,0-48.1-18.7-48.1-47.4s21.5-49.8,50.4-49.8,19.4,2.4,22.9,4.2l-3.8,13.7c-4.5-2-10.6-3.6-18.5-3.6-19.2,0-33,12-33,34.7s12.2,34,32.9,34,14.3-1.4,18.7-3.5l2.8,13.6h0Z" class="cls-1"></path>
              <path d="M276.3,40.8c0,5.2-3.8,9.2-9.8,9.2s-9.5-4.1-9.5-9.2,3.9-9.4,9.7-9.4,9.5,4.1,9.7,9.4h0ZM257.9,127.9V59.8h17.3v68.1h-17.3Z" class="cls-1"></path>
              <path d="M313.5,40.4v19.4h16.4v12.9h-16.4v30.1c0,8.3,2.2,12.6,8.8,12.6s5.2-.4,6.7-.8l.3,13.2c-2.5,1-7,1.7-12.5,1.7s-11.6-2.1-14.8-5.6c-3.6-3.9-5.3-10.1-5.3-19v-32h-9.8v-12.9h9.8v-15.4l16.8-4.1h0s0,0,0,0Z" class="cls-1"></path>
              <path d="M354.6,59.8l12.3,36.5c1.4,4.2,2.8,9.4,3.8,13.3h.4c1.1-3.9,2.4-9,3.6-13.4l10.6-36.4h18.5l-17.1,46.4c-9.4,25.5-15.7,36.8-23.8,43.8-6.7,6-13.7,8.3-18,8.8l-3.9-14.6c2.9-.7,6.6-2.2,10.1-4.8,3.2-2.1,7-6.2,9.4-10.8.7-1.3,1.1-2.2,1.1-3.1s-.1-1.7-1-3.4l-24.9-62.5h18.9,0Z" class="cls-1"></path>
              <path d="M507.5,93.2c0,25-17.6,36.2-35,36.2s-34.1-13.3-34.1-35.1,14.7-36.1,35.3-36.1,33.9,14.3,33.9,35ZM456.2,93.9c0,13.2,6.4,23.1,16.9,23.1s16.6-9.7,16.6-23.4-4.8-22.8-16.5-22.8-17.1,11.8-17.1,23.1h0Z" class="cls-1"></path>
              <path d="M523.6,127.9v-55.3h-9.2v-12.9h9.2v-2.9c0-8.8,2.4-17.6,8.3-23.2,5-4.8,11.9-6.6,17.8-6.6s8.3.7,11.1,1.7l-1.3,13.3c-1.8-.7-4.2-1.3-7.3-1.3-8.5,0-11.5,7.1-11.5,15.5v3.5h15v12.9h-14.8v55.3h-17.2s0,0,0,0Z" class="cls-1"></path>
              <path d="M675.6,89.5c-.6-12.2-1.3-26.9-1.1-39.6h-.4c-3.1,11.5-7,24.2-11.2,36.1l-13.7,40.8h-13.3l-12.6-40.3c-3.6-12-7-24.9-9.5-36.7h-.3c-.4,12.3-1,27.3-1.7,40.2l-2.1,37.9h-16.1l6.3-94.3h22.7l12.3,37.9c3.4,11.1,6.3,22.2,8.7,32.7h.4c2.5-10.2,5.7-21.8,9.4-32.9l13-37.8h22.4l5.5,94.3h-16.8l-1.8-38.5h0,0Z" class="cls-1"></path>
              <path d="M749.9,127.9l-1.1-7.6h-.4c-4.2,5.3-11.3,9.1-20.1,9.1-13.7,0-21.4-9.9-21.4-20.3,0-17.2,15.2-25.9,40.4-25.7v-1.1c0-4.5-1.8-11.9-13.9-11.9s-13.7,2.1-18.3,5l-3.4-11.2c5-3.1,13.8-6,24.6-6,21.8,0,28.1,13.9,28.1,28.7v24.6c0,6.2.3,12.2,1,16.4h-15.5,0ZM747.6,94.6c-12.2-.3-23.8,2.4-23.8,12.7s4.3,9.8,9.8,9.8,11.9-4.5,13.4-9.4c.4-1.3.6-2.7.6-3.8v-9.4h0Z" class="cls-1"></path>
              <path d="M782.6,28.6h17.3v99.3h-17.3V28.6Z" class="cls-1"></path>
              <path d="M818.6,80.1c0-7.8-.1-14.4-.6-20.3h14.8l.7,10.1h.4c3.4-5.3,9.5-11.6,21-11.6s16,5,18.9,12.6h.3c2.4-3.8,5.2-6.6,8.4-8.5,3.8-2.7,8.1-4.1,13.7-4.1,11.3,0,22.8,7.7,22.8,29.5v40.2h-16.8v-37.6c0-11.3-3.9-18-12.2-18s-10.2,4.2-12,9.1c-.4,1.7-.8,3.8-.8,5.7v40.8h-16.8v-39.5c0-9.5-3.8-16.2-11.8-16.2s-10.8,5-12.3,9.8c-.7,1.7-1,3.6-1,5.6v40.3h-16.8v-47.8h0Z" class="cls-1"></path>
              <path d="M1002,93.2c0,25-17.6,36.2-35,36.2s-34.1-13.3-34.1-35.1,14.7-36.1,35.3-36.1,33.9,14.3,33.9,35h0ZM944.9,40.6c0-4.9,3.8-8.7,8.8-8.7s8.3,3.6,8.3,8.7-3.5,8.5-8.4,8.5-8.7-3.9-8.7-8.5ZM950.7,93.9c0,13.2,6.4,23.1,16.9,23.1s16.6-9.7,16.6-23.4-4.8-22.8-16.5-22.8-17.1,11.8-17.1,23.1h0ZM972.9,40.6c0-4.9,3.6-8.7,8.5-8.7s8.4,3.6,8.4,8.7-3.5,8.5-8.4,8.5-8.5-3.9-8.5-8.5Z" class="cls-1"></path>
            </g>
            <g>
              <g>
                <path d="M91.6,93.9c0,0,0,0,0,.1s0,0,.1,0,.1,0,.2,0c.1-.1,0-.3,0-.5,0,0,0,0,0,0-.2.1-.3.2-.3.4h0Z" class="cls-1"></path>
                <path d="M54.1,90.7c-.7-.2-1.3-.4-1.8-.6,0,0,0,0,0,0,.2,0,.2-.2.3-.3,0-.2,0-.4-.3-.6,0,0,0,0,0,0,.7.2,1.4.5,2.2.7,0,0-.2,0-.3.1-.1,0-.2.2-.2.3,0,.2,0,.3.2.5h0,0Z" class="cls-1"></path>
                <path d="M57.9,92c-.5-.2-1-.4-1.6-.6,0,0,.2,0,.2-.1.2,0,.2-.2.3-.3,0-.1,0-.2-.1-.4.6.2,1.1.5,1.7.7-.1,0-.2.1-.4.2-.1,0-.2.2-.2.3,0,0,0,.2,0,.3h0,0Z" class="cls-1"></path>
                <g>
                  <path d="M64.1,89.5c.3.2.5.2,1-.2-.2-.3-.2-.5-.3-.9,0-.1,0-.3,0-.4.1-.6,0-1.2,0-1.3-.2.3-.4.5-.7.5-.4,1-.6,1.9-.1,2.2h0Z" class="cls-1"></path>
                  <path d="M49,84.2c.6,0,1.2-.7,1.4-1.8-.1-.3-.2-.6,0-1h0c0,.1-.5.5-.8,1.1,0,.1-.2.2-.2.3-.2.3-.5.4-.8.5.1.6.3.8.6.9h0s0,0,0,0Z" class="cls-1"></path>
                </g>
                <g>
                  <path d="M61.3,90.7c0-.2-.2-.4-.2-.7-.1,0-.2.1-.4.2,0,0-.2,0-.3,0,.3.2.6.3.9.4Z" class="cls-1"></path>
                  <path d="M56.6,88.6c-.1-.3-.3-.5-.3-.6-.1,0-.4.2-.7.3.3.1.7.3,1,.4Z" class="cls-1"></path>
                  <path d="M51.4,87s0,0,0,0c-.1-.2-.2-.4-.3-.5-.2.1-.3.3-.5.4.3,0,.5.1.8.2h0Z" class="cls-1"></path>
                </g>
                <path d="M33.6,101.9l-8.1-10.5.2-.2,7.8-6.1v-29.9L3.5,32.6c-.2-.1-.3-.2-.5-.2-.5,0-1,.4-1,1h0v93.5c0,.5.4,1,1,1h29.7c.5,0,1-.4,1-1h0s0,0,0,0v-25h0s0,0,0,0Z" class="cls-1"></path>
                <path d="M76.4,94.3l-18.7-24.4h0s-.5-.6-.5-.6c-.6.4-1.4,1.1-2.3,1.8-1.9,1.6-4,3.3-6,3.6l-21.8,16.9,19.7,25.6c1.7,2.1,7,7.9,15.2,4.1,8.4-3.9,9.6-2.6,9.6-2.6,0,0-.7-1.7,5-8.6,5.4-6.6,1.5-13.6,0-15.8h0,0ZM74.9,101.2c-.3,1.8-.8,2.8-2,3.6-.8.5-1.8.6-2.5.6h0c.4.7.7,1.4.8,2.5.2,2-1.3,3.1-1.3,3.2l-.4.3v-.5c-.3-1-.9-1.6-1.3-1.9.3.8.6,2,.6,3.2-.1,2.5-1.9,3.3-2,3.3h-.3c0,.1,0-.2,0-.2,0,0-.6-1.8-1.5-2.8-.5-.6-1.2-.9-1.6-1.1,0,.7-.1,1.7-.7,3.1-1,2.4-3.2,2.9-3.3,2.9h-.5c0,0,0-.4,0-.4.2-1-.2-2.3-1.2-3.5-.2-.3-.4-.6-.6-.8-.3,2.1-1.9,2.8-2.7,3.2-.8.4-1.6.6-1.7.6h-.5c0,.1.1-.4.1-.4.3-1-.3-2.1-.8-3.2l-.2-.3c-.4-.9-.5-2-.5-2.7-.2.2-.6.5-.8.9-.7,1.1,0,2.8,0,2.8l.3.6-.7-.2c-.1,0-2.6-.9-3.4-2.4-.3-.5-.5-2.2-.5-2.7-.5.8.2,3,.2,3l-.6-.4c0,0-2.1-1.6-2.2-3.5-.1-1.9.3-2.8,2-4.1,0,0,.2-.1.3-.2.2-.1.4-.3.7-.6-.4-.2-1.3-.6-2.2-.9-1.5-.6-3.1-.7-3.2-.7h-.4s.2-.4.2-.4c.4-.9,1.9-1.2,4-.9.4,0,.7.1,1,.2-.2-.2-.5-.3-.9-.5-1.2-.3-2.4,0-3.4-.2,0,0,1.2-.8,3.3-.5-.6-.2-1.3-.4-2.1-.6-2.3-.2-3,.7-3.2,1.3-.1.2-.4.8-.4.8h0s-1.3-1.3-1.7-3.3c-.4-1.8.5-3.9,1.7-4.5,1.7-.9,5.1-.7,6.4-.6,0-.5,0-1.2.9-2.2,0-.1-.1-.3,0-.7,0-.3.3-.4.5-.5-.3-.3-.3-.8,0-.9.1-.1.3-.2.4-.3-.6-.6-.2-1.2.3-1.5-.6-.6-1.1-1.5-1.4-2.5-.6.3-1.4.2-1.9-.3,0,0,0,0,0,0-.5-.4-1-.6-1-.6h0s-.1-.2-.1-.2h.1c0-.1.5-.5.8-1.1h0c0-.1.1-.2.2-.3.2-.2.4-.3.6-.4,0-.5,0-1,.4-1.4,0,0,0,0,0,0,.4-.5.6-1,.6-1h0s.2-.2.2-.2h.1c0,.1.4.6,1,.9h0c.1,0,.2.2.3.3.3.2.4.6.5.9.5,0,.9.1,1.3.5,0,0,0,0,0,0,.5.4,1,.6,1,.6h0s.1.2.1.2c0-.2.1-.4.3-.5.2-.3.5-.5.9-.5.4,0,.8,0,1.2.3.3.2.5.6.5,1,0,.4-.1.8-.4,1.1,0,0,0,0,0,0-.2,1.3.3,2.4,1.2,2.6.5,0,.9,0,1.3-.5-.5-.1-.9-.5-1.1-1.2,0,0,0,0,0-.1-.3-.7-.6-1.2-.6-1.2h0c0,0,0-.2,0-.2h.1c0,0,.7-.3,1.4-.7h0c.1,0,.3-.1.4-.2.3,0,.7,0,1,0,.1-.5.5-.9,1.2-1.1,0,0,0,0,.1,0,.7-.2,1.2-.7,1.2-.7l.2-.2v.2c0,0,.3.7.7,1.3,0,0,0,0,0,0,.3.4.5,1.1.2,1.6.3.1.6.3.8.6,0,.1.1.2.1.3,0,0,0,0,0,.1.3.8.8,1.3.8,1.3h0c0,0-.7.5-1.4.8h0s0,0,0,0c-.6.4-1.2.4-1.6.2,0,.6.3,1,.8,1.3.8.4,1.7,0,2.6-1.2,0-.2-.1-.4,0-.5,0-.8.7-1.4,1.6-1.3.7,0,1.5.6,1.5,1.6s0,.4,0,.6h.1s.6,0,1.2,0h0c.5,0,1,.2,1.3.5.3-.3.6-.4.9-.4.1,0,.2,0,.3,0h0c.7.1,1.4,0,1.4,0h.1s0,.2,0,.2c0,0,0,.5,0,1.2h0c0,.6-.2,1.1-.6,1.5.1.2.3.5.3.7,0,.1,0,.3,0,.4-.1.7,0,1.4,0,1.4h0c0,.1-.2.2-.2.2,0,0-.5,0-1.2,0,0,0,0,0,0,0-.9.1-1.4-.4-1.7-.9-1,.7-1.9,1-2.7,1.1.1.4,0,.6-.2.8,0,0,0,.1.1.2.9.1,1.6.4,2.1.6.4.2.8.3,1.1.3.8,0,1.8-.2,2.6-.4.5-.2,1.6-.8,1.6-.8.3.9-.8,2.9-2.4,3.7l-.3.2c-.5.3-1.1.6-2.2.9.6,0,1.3.1,2.1.3,1.7.4,2.9,1.7,3.5,2.4.2.2.3.3.4.4.4.4,1.5-.2,1.8-.4l.5-.3v.6h-.1,0Z" class="cls-1"></path>
                <path d="M36.4,60.8c-.1.5-.2,1.2,0,1.7.1.3.4.4.7.5.3,0,.6,0,1,0,2.2,0,5.6-1,5.9-1.1,1-.8,1.6-2.1,1.9-2.7-2.9,1.4-6.4,2.4-8.7,2.4s-.4,0-.6-.3c-.1-.2-.2-.4-.3-.7h0s0,0,0,0Z" class="cls-1"></path>
                <path d="M69.8,87.5h0s-.4,0-.8,0h0c0,0-.1,0-.2,0-.3,0-.6.2-.8.5,0,0-.2.1-.3.1-.1,0-.2,0-.3-.2,0,0,0,0,0-.1-.2-.3-.5-.5-.8-.4,0,0,0,0,0,0-.4,0-.8,0-.8,0h0s0,.4,0,.9h0c0,0,0,.2,0,.2,0,.3.2.5.3.7,0,0,.2.2.2.3,0,.1,0,.2-.1.2-.8.7-1.7,1-2.3.6-.9-.5-.8-2.1,0-3.5,0,0,0,0,0,0,.3,0,.6-.4.6-.7,0-.4-.3-.8-.8-.8s-.8.3-.8.7c0,.1,0,.3,0,.4,0,0,0,.2-.1.2-.9,1.5-2.5,2.2-3.6,1.5-.8-.5-1.2-1.5-1-2.6h0c0-.2.2-.3.3-.3,0,0,.1,0,.2,0,.4.3,1,.4,1.4,0,0,0,0,0,0,0,.5-.3.9-.3.9-.3h0s-.3-.4-.5-1h0c0,0,0-.2-.1-.3-.2-.3-.5-.5-.8-.5h0c-.2,0-.3-.1-.3-.3,0,0,0-.1,0-.2h0c.3-.4.3-.9,0-1.3,0,0,0,0,0,0-.3-.5-.4-.9-.4-.9,0,0-.3.3-.9.4,0,0,0,0,0,0-.5.1-.8.5-.8,1h0c0,0,0,.1,0,.1,0,.1-.3.2-.4,0h0c-.3-.1-.6-.2-.9,0,0,0-.2,0-.3.1h0c-.5.3-1,.4-1,.4h0s.3.3.5.8c0,0,0,0,0,0,.2.5.6.8,1.2.8,0,0,.1,0,.2,0,.1,0,.2.3,0,.4h0c-.6,1-1.5,1.5-2.4,1.4-1.3-.2-2.1-1.8-1.8-3.5,0,0,0-.2,0-.3.1,0,.2-.1.3-.2.3-.3.2-.8-.2-1.1-.4-.3-.8-.2-1.1.1-.2.3-.2.7,0,.9,0,0,0,0,0,0-.2,1.6-1.2,2.9-2.2,2.7-.7-.1-1.2-.9-1.4-1.9,0,0,0-.2,0-.3,0,0,.2-.1.3-.1.2,0,.5,0,.7-.3,0,0,0-.1.1-.2h0c.2-.4.5-.7.5-.7h0s-.3-.1-.6-.4c0,0,0,0,0,0-.3-.3-.6-.3-.9-.2,0,0,0,0-.1,0-.1,0-.2,0-.3,0s-.1-.2-.1-.3c0-.3,0-.7-.3-.9,0,0-.1,0-.2-.1h0c-.4-.2-.7-.5-.7-.5h0s-.1.3-.4.6c0,0,0,0,0,0-.3.3-.3.7-.2,1,0,.1,0,.3,0,.4,0,0-.2.1-.3.2h0c-.2,0-.4.1-.6.3,0,0,0,.1-.1.2h0c-.2.4-.5.7-.5.7h0s.3.1.6.4c0,0,0,0,0,0,.4.4.9.4,1.3,0,.1-.1.3-.1.4,0,0,0,.1.1.1.2h0c0,0,0,0,0,.1.5,2.1,1.8,3.5,3,3.4.7,0,1.4-.6,1.9-1.2h0c.2.9.8,1.8,1.6,2.2,1.2.6,2.6.3,3.7-.6.2,1.4,1.2,2.5,2.4,2.8.9.2,1.9,0,2.7-.6h0c0,.9.1,1.7.7,2.2.9.9,2.8.7,4.5-.7,0,0,0,0,0,0h0c0,0,.1,0,.2,0,.2,0,.3.1.3.3,0,.5.5.9,1,.8,0,0,0,0,0,0,.4,0,.8,0,.8,0h0s0-.4,0-.9h0c0,0,0-.2,0-.2,0-.2-.1-.4-.3-.6h0c0-.1-.1-.2,0-.3,0-.2,0-.3.2-.3.3-.2.5-.5.5-.9,0,0,0,0,0,0,0-.4,0-.7,0-.7h0s0,0,0,0ZM46.5,82.5c-.4,0-.7-.3-.7-.7,0-.4.3-.7.7-.7.4,0,.7.3.7.7,0,.4-.3.7-.7.7h0ZM57.6,84.5c-.4,0-.8-.4-.7-.8s.4-.8.8-.7c.4,0,.8.4.7.8s-.4.8-.8.7h0ZM67.4,90c-.4,0-.7-.3-.6-.7,0-.4.3-.7.7-.6.4,0,.7.3.6.7,0,.4-.3.7-.7.6Z" class="cls-1"></path>
                <path d="M49.9,89.4c-.4-.1-.7-.2-1-.2.1,0,.2-.2.2-.3,0-.2,0-.4-.3-.6,0,0-.2-.2-.2-.2.4,0,1,.2,1.7.4-.1,0-.2.1-.4.2-.1,0-.2.2-.2.3,0,.2,0,.3.2.5h0Z" class="cls-1"></path>
                <path d="M48.3,88.5c0,.3-.3.6-.6.6-.3,0-.6-.3-.6-.6s.3-.6.6-.6c.3,0,.6.3.6.6" class="cls-1"></path>
                <path d="M51.8,89.3c0,.3-.3.6-.6.6s-.6-.3-.6-.6.3-.6.6-.6c.3,0,.6.3.6.6" class="cls-1"></path>
                <path d="M56,90.6c0,.3-.3.6-.6.6-.3,0-.6-.3-.6-.6s.3-.6.6-.6c.3,0,.6.3.6.6" class="cls-1"></path>
                <path d="M59.9,92.2c0,.3-.3.6-.6.6-.3,0-.6-.3-.6-.6,0-.3.3-.6.6-.6.3,0,.6.3.6.6" class="cls-1"></path>
                <path d="M61.4,93.6c-.4-.2-.8-.4-1.2-.6.1,0,.2-.1.3-.1.2,0,.2-.2.3-.3,0,0,0-.2,0-.2.6.3,1.1.5,1.5.7,0,0-.1,0-.2,0-.1,0-.3.1-.4.2-.1,0-.2.2-.2.3h0Z" class="cls-1"></path>
                <path d="M63.5,93.8c0-.3-.2-.5-.6-.5-.3,0-.6.2-.6.5,0,0,.2,0,.6,0,.4,0,.6,0,.6,0" class="cls-1"></path>
                <path d="M60.6,93.8c-1.4-.7-3.4-1.5-5.9-2.4-4.6-1.6-7.1-2-7.5-2.1-.5,0-.7.5-.2.6.4,0,2.7.4,7.4,2,1.9.6,3.5,1.3,4.8,1.8,0,0,.2,0,.4,0,.2,0,.9,0,.9,0" class="cls-1"></path>
                <path d="M47.6,87.3c.4,0,2.7.4,7.5,2,4.8,1.6,7.8,3.3,8.1,3.5.4.3.7-.3.1-.6-.3-.2-3.4-1.8-8-3.4-4.6-1.6-7.1-2-7.5-2.1-.5,0-.7.5-.2.6" class="cls-1"></path>
                <path d="M57.6,68.6s1-1,3.3-1.5c1.8-.4,3.1-.1,2.7,1.1-.3.9-1.4,1-2.9,1.2-.8,0-1.5,0-2,0-.5,0-.9-.3-1.1-.7h0" class="cls-1"></path>
                <path d="M47.5,57.1c0,.5-.4,2.9-1.9,4.7.5-.2,1.4-.4,2.5-.8.7-.2,1.4-.4,2-.6.4-.1.6-.2,1-.3-.4-.2-1.3-.7-2-1.3-.9-.8-1.6-1.5-1.6-1.5h0Z" class="cls-1"></path>
                <g>
                  <path d="M44.3,49.7c-.3.3-.6.7-.9,1,.2,0,.3.2.5.3,0-.3,0-.8.4-1.3Z" class="cls-1"></path>
                  <path d="M44.6,54.5c-.9-.7-1.6-.9-2.1-.6-.5.3-.7,1.2-.5,1.9v.4c.1,0-.3-.2-.3-.2,0,0-.8-.4-1.5-1.2-1,1.3-1.9,2.5-2.3,3.2,0,0-1,2.2.5,2.1,1.9-.2,5.3-1.1,8.5-2.8v-.9s-1.6-1.4-2.3-1.9h0s0,0,0,0Z" class="cls-1"></path>
                </g>
                <path d="M82.7,64c2.9-2.5,2.6-4.1,2.6-4.1-1.9,1.9-4.8,2.1-4.8,2.1,0,0-1.8,1.1-2.4,3.4-.6,2.4.4,4.5,2.4,5.1,1.9.5,3.5-.5,3.9-1.5.6-1.8-.7-2.6-.7-2.6,0,0,.7,1.6-.8,2.3-1.2.6-2.9,0-2.7-2,.1-2,2.5-2.6,2.6-2.7" class="cls-1"></path>
                <path d="M94.6,90.8c-.3,3,2.7,3.6,3.9,3.2,1.5-.5,1.9-2,1.4-3.1,0,0-.2.6-.8,1.1-.6.4-1.8.5-2.2-.3-.7-1.3.3-1.8,1.4-2.9,1.5-1.4,1.5-1.9,1.5-1.9-.3-2.1-1-3-1-3-.3,1.5-2.2,5.7-6.1,4.7-.7-.2-1.3-1.3-.8-2.1.4-.7,1.1-.8,1.1-.8,0,0-.9-.4-1.8-.1-1.1.3-1.8,1.2-1.8,2.2,0,1.4.9,1.9,2.2,2.3,0,0-.8.7-1.7,1.6-.9,1-1.6,2.7-.5,4,1.1,1.3,3.1,1.1,3.7-.1.4-1,0-1.8-.3-2.1,0,0,0,0,0,0,.3,1.1-.5,1.6-1.2,1.5-.5,0-.9-.6-.8-1.1,0-.4.3-.7,1-1.2l2.8-1.8" class="cls-1"></path>
                <path d="M92.3,75.6c-2.8,0-3.9.6-3.9.6.4-.3.9-.7,1.5-1.2,1.1-.9,1-1.7,1-1.7,0,0-2.5-.4-3.5,1.5-.3.6-1.4,1.8-2,2-.4.2-.5.2-.6.2.6-.6.9-1.2,1-2.6.1-1.3-1.2-2.2-1.2-2.2,0,0-.7,1.3-.8,2.3-.2,1.6-.2,2.6-1.6,3.7-1.8,1.5-3.3,1.5-4.9,1.7,0,0,.9,1,2.3,2,2,1.5,2.7,2,3.5,3,1,1.2,1.5,1.8,1.5,1.8,0,0,1.4-1.5.2-3.2-.8-1.1-1.8-1.8-1.8-1.8,0,0,1.1-.5,2.1-.4,1.2.1,2.3.5,3.2.8,1,.2,2.6-.2,2.6-.2,0,0,0-1.3-1.1-1.6,0,0-1.2-.5-1-.6,1.3-1,2.5-1.2,4-1,3.3.4,5,2.5,5.8,3.7,1.6,2.3,1.1,4.7,1.1,4.7,2.7-4.4-.3-11.5-7.4-11.3h0s0,0,0,0ZM85.9,79.4c-1.7.7-3.4.5-3.5.5h0s1.8-.7,3.2-1.2c1.4-.4,2.3-.9,2.3-.9h0s-.6,1-2.1,1.6h0Z" class="cls-1"></path>
                <path d="M92,59c-1-.1-1.4-1.2-1.4-1.2,0,0,.5-.8.5-2.5,0-1.2-.2-2.1-.5-2.7-.3-.7-.7-1.2-1.1-1.8-.3-.4.2,0,.2,0,.6.5,1.1.7,1.1.7,2.6,1,3.3-1.6,3.3-1.6-.6,0-1.6,0-2.4,0-1-.2-1.8-.4-3.2-1.1-1-.5-1.7-.9-2.9-1.1.6.3,1.2.7,1.7,1.2,1.5,1.3,2,3.1,1.8,4.8-.1-2-.9-3.6-2.4-4.6-2.7-1.9-7-1.7-10-.9,0,0,2.3-.8,4.1-1.1.5,0,.9-.1,1.4-.1,1.1-.6,1-2.4,1-2.4-1.9-.2-2.9,1.5-5.7,2.2-2.4.6-4.5,2.2-5.6,5.3,0,.2,0,.3.1.5.1.6.1,1.3.2,1.7,0-.2.2-.4.3-.6.5-1,1.3-2.2,3-3.3,1.8-1.1,3.8-1.1,5.1-.7,2,.6,2.6,1.8,2.9,2.3.4.6.4,1.3.3,1.5-1,1.2-2,.8-2.8,0-.6-.7-1.4-1.1-1.4-1.1-.4.9-.7,2.1.2,3.2,1.1,1.5,4,.3,4,.2,0,0,0,.5-.5,1.2-.8,1.3-2.6,1.9-4,1.5-1.2-.4-2.7-.4-2.7-.4,0,0,.5,3,2.4,3.5,2.5.6,5.3-1.2,6.7-2.4,0,0,.8,2.1-1.8,4.7,0,0,.5-.2,1-.4,1.6-1.1,2.1-1.5,3-3.2,1-1.7,1.2-4.7,1.2-4.7h0s.4,3-.4,4.8c0,.2.1,1.5,2,1.9,2,.4,3.4-1.5,3-3.7,0,0-.6.9-1.9.7h0s0,0,0,0Z" class="cls-1"></path>
                <path d="M55.4,56.7h-.3c-1,0-1.6,0-2.8,0,.3.4.9.9,1.6,1.2.9.4,1.7.5,1.8.5-.2-.5-.3-1-.3-1.7h0Z" class="cls-1"></path>
                <path d="M57.9,59.8c0-.6,0-1.1,0-1.4,0,0,0,0,0,0-.4.5-1.3,1-1.3,1h-.1c0,0,0,0,0,0,0,0,0-.1-.2-.3-.8,0-1.7,0-2.7-.6-.9-.4-2.3-1.4-2.7-2.7-.4-1.3,0-2,.6-2.7,0,0-1-.7-1.8.2-.6.6-.2,2.1-.2,2.1,0,0-.6-.2-1.2-.6-.1,0,0,.4.1,1,.1.4.5,1.3.5,1.3,4.1,4,7.4,3.9,9.2,3.1,0-.1,0-.3,0-.4h0Z" class="cls-1"></path>
                <g>
                  <path d="M61.2,64.8c-.2-.1-.3-.3-.4-.4,0,0,0,0,0,.1-.1.2-.3.4-.4.5.3,0,.6-.2.8-.2h0,0Z" class="cls-1"></path>
                  <path d="M58.6,64.1c-.5-.7-.7-1.8-.7-3-.5.2-2,.4-3,.3-1.1,0-1.6-.2-2.9-.8-1,.3-1.9.6-2.9,1-1.6.6-3.2,1.1-4.3,1.4-1.5.4-2.8.6-3.6.7.5,0,1.1.1,1.7.1,1.5,0,2.3.2,4.1.5,1,.2,1.8.9,2.3,1.9.5,1.1.5,2.3,0,3.2v.2c-.5.6-1,1.5-.6,1.8,0,0,0,0,0,0,.5,0,1.8-.9,3.1-1.9.5-.4,1.1-.7,1.6-1.1,2-1.3,4.5-2.8,6.5-3.5-.2,0-1-.4-1.4-1h0s0,0,0,0Z" class="cls-1"></path>
                </g>
                <path d="M74.7,81.6c1.8.8,3.3.5,6.4,2.2,0,0-1-.9-2.9-2.2-2-1.4-3.3-3.8-4.2-4.7,0,0,1.4.3,2.5.2,2.1-.3,2-1.8,2-1.8,0,0-1.4,0-2.4-.2-.9-.2-2.5-.8-3.2-2.1,0,0,.7,0,1.4-.3,1.3-.4,1.3-1.8,1.3-1.8,0,0-.5.4-2.2,0-1.3-.4-3.2-1.2-4-2.6-.6-1-1.3-1.7-1.8-2.2-.3,0-.6,0-.9,0s-.5,0-.8,0c1.6,1.9,2.4,4.7,2.4,4.8,0,0-1.5-2.4-2.1-3.4-.5-.7-.9-1.3-1.3-1.6-.7-.3-1.2-.8-1.5-1.2,0,.1,0,.2-.2.4,0,.1-.2.3-.3.4.3.6.6,1.5.9,2.1,1.8,4,1.5,7.7,1.2,9.5,0,0,1.9,0,2.4-1.2.4-1-.1-2.6.2-2.1.9,1.8.4,3.6.6,5.6.3,2.5,2.4,2.9,2.4,2.9,0,0,.3-1.4,0-3.6,0-.2,1.6,1.8,3.9,2.9h0s0,0,0,0Z" class="cls-1"></path>
                <path d="M44,53.2c-2.8-1.5-2.8,1.7-2.8,1.7,0,0-1.8-1.3-.9-3,1.2-2.1,4.7.8,4.7.8,0,0-1-1.5.1-3,0,0,1.3.7,2,3.9.4,2.2,1,3.1,1,3.1,0,0-2.5-2.6-4.1-3.5" class="cls-1"></path>
                <path d="M52.1,16.9c.5-2,.3-4.7-.9-4.9-.7-.1-1.5.2-1.8.7-.2.4.4,1-.1,1.6-.4.5-1.2.8-2.1.5s-.9-1.6-.6-2.5c0,0-.5.6-.6,1.1s.3.9,0,1-1.6-1-1.3-2.6c.3-1.6,1.4-2.3,2.3-2.5,0,0,.2.3.6.7.4.3,1.5.3,1.5.3,0,0,.4.6,1.3.2.7-.3.7-.9.7-.9,1.6.6,2.5,2.9,1.7,7.2h-.6c0-.1,0,0,0,0h0Z" class="cls-1"></path>
                <path d="M54.9,17.5c.9-3.2,1.4-5.5,1.1-8.1-.4-2.6-1.5-3.3-1.5-3.3,0,0,0,0-.6,0-.7,0-.9-.6-.9-.6,0,0-.5.3-1-.1-.5-.3-.6-1-.6-1-1.9,0-3.2.3-3.8,1.3-.6.9-.8,1.8-.5,3,.2,1.1,1.3,1.2,1.3,1.2-.3-.3,0-1.6,0-1.6,0,1,.4,2.1,1.4,1.9.8-.1.9-1.8.9-2.4,0-.8.9-1.6,2.2-.7,1.3,1,1.6,2.8,1.6,2.8,0,0-.6-1.1-1.2-2-.7-.8-1.6-.9-1.8,0-.2.9-.2,1.3-.2,1.3,2.7,1.3,2.5,4.6,1.8,7.8l1.8.5h0s0,0,0,0Z" class="cls-1"></path>
                <path d="M55.6,17.7h-.3c0,0,.5-1.7,1-3.9.5-2.2.5-5.1-1-7.8-.1-.2.6-.8,1.2.4.4.9.7,2.2.6,4.5,0,.3.2.5.2-.7,0,0,0-2.7-.5-4-.5-1.3-1.2-2-1.4-2s.3.6-.8,1.1c-1.1.5-2,0-1.1-2.3.1-.3-.7.5-.8,2.1,0,.2-1.3-.1-.7-2.2.4-1.5,2.7-2.1,4.2-1.5s2.8,1.5,2.9,4.7l-3.5,11.6h0,0Z" class="cls-1"></path>
                <path d="M56,17.8c.2,0,.7.2,1.3.5.7.3,1.3.5,1.5.6,1.2-2.7,3-6.2,4.3-8,1-1.4,1.7-2.2,2-2.5-.1,0-.3,0-.4-.2-.3-.2-.5-.3-.7-.5-.1,0-.4.2-.7.6-.5.5-2.2,2.9-2.2,3h-.2c0-.1.8-1.7,1.5-2.9.5-.8,1-1.2,1.2-1.4,0,0,0-.2-.1-.4,0-.1,0-.2,0-.3-.4.2-1.3.9-2.4,3.6-.4.9-.8,1.8-1.1,2.6-.7,1.6-1,2.3-1.1,2.3h0c0-.1,0-.2,0-.2.2-.5,1.4-4,2.7-6.9,1.1-2.4,2.2-2.6,2.5-2.6s.4,0,.4.2c0,0,0,.2,0,.4,0,.7,0,1.8,1.8,1.9,0,0,.1,0,.2,0,1.3,0,2.2-.8,2.3-1.9.2-1.2-.6-2.6-2.5-3.2-.4,0-.7-.1-1.1-.1-2.7,0-4.8,2.6-5.6,5.2-.7,2.1-1.9,6-3.2,10.2Z" class="cls-1"></path>
                <path d="M59.3,19.2c2.5-5.4,5.1-9.2,7.2-11,0,0,.4,0,.9-.3s.6-.3.6-.3c0,0,1.5-.3,3,.5,1.5.8,1.8,1.9,1.8,2.9,0,0-.3-.3-.6-.4-.3-.1.4.5.4,1,0,.5-.2,1-.4,1.2,0,0-.2-.8-.5-1.2-.2-.2.1.4.2,1,0,.5-.2.8-.7,1.1-.3.2-1.3.5-2.5-.3,0,0,.7-.2.7-.7,0-.1-.8.6-1.5,0-.8-.5.2-1.5,0-1.5s-1.5,0-2.8.9c-1.3,1-1.7,1.7-1.8,1.9,0,.2,1.4-1.2,2-1.7,1.1-.8,1.6-.5,1.6-.5-.1.5,0,.7.4,1.1,0,0-1,0-2.7,1.6-2.2,2.1-4.1,5.2-4.1,5.2l-1.2-.5" class="cls-1"></path>
                <path d="M60.9,19.9s0,0,0,0c1.6-2.1,3.3-4.4,4.3-5.3,1.2-1,2.2-1.3,2.7-1.3,0,0,.4.5,1.2.7.8.2,1.2.2,1.2.2,0,0,1.7,1.5,1.4,3.2-.3,1.3-1,1.7-1,1.7,0,0,.2-.5,0-1.1,0-.4-.3-.9-.3-.9,0,0,.1.9,0,1.6-.3,1-.8,1.2-1.4,1-.2,0,.5-.5.6-1.9,0-1.1-.5-2-1.5-2.6,0,0,1.3,1.5,1,2.7-.3,1.3-.8,1.7-1.3,1.8-.6.2-1-.2-.7-.7.2-.4.3-.6.2-.8-.1-.2-.6,1.3-1.1.8-.7-.7.1-1.9,0-2.4s-.8-.6-1.4-.3c-.9.4-3.7,3.6-3.7,3.6" class="cls-1"></path>
                <path d="M65,16.9c.5,0,.2.5.2.5,0,0,0-.2-.5,0-.5,0-1.4.6-1.4.6,0,0,1-1.1,1.7-1.1" class="cls-1"></path>
                <path d="M71.3,60.3c.8-.7,1.8-2.1,2.3-3.3.6-1.5.2-2.6.2-2.6,0,0-.6,0-1.3.5-.9.7-1.2,1.1-1.3.7,0,0,.6-1.8.2-3.4-.2-.8-.7-1.8-.7-1.8,0,0-.9.7-1.3,1.8-.5,1.5-.4,3.1-.4,3.1,0,0-.5-.5-.8-1.5-.3-1.2-1.1-1.5-1.1-1.5,0,0-1.3,2-.7,3.8.4,1.3-.3,3.5-1.8,3.6-1,0-1.9-.2-2.6-1.3-.6-.9-.6-2.3-.6-2.3.7,1.2,2,1.7,2,1.7,0,0,.7-1.2,0-2.5-.4-.8-.9-1.2-1.4-2-.4,1-1,2-1.1,2.1l-.2.2-.2-.2s-.9-1.1-1.5-1.8l-1-1c-.2.9-.3,2.2-.3,2.2v.4s-.3-.2-.3-.2c0,0-.4-.3-.8-.6-.2.5-.4,1.1-.5,1.6-.2,1.5.4,2.4.4,2.4,1.2-.4,1.4-2.3,1.4-2.3.4.4.4.7.4.7.5,1.4.1,3,.3,5.1.2,2.1,1.3,2.3,1.3,2.3.3-.4.5-1.9.5-1.9.1-.7.5.7.5.7.5,1.6,1.6,1.7,1.6,1.7.3-.4.3-1.7.3-1.7,0,0,.4.4.8.8.5.6.7,1.2,2.1,1.6,1,.3,2.3-.1,2.3-.1,0,0-.4-1.1-1.7-1.9,0,0,0,0,0,0,.4-.2,3.1,1,5,0,1.4-.7,1.6-1.9,1.7-2.5,0,0-1.2-.2-2.1,0-.3,0,.2-.4.5-.7h0s0,0,0,0ZM66.9,61.7c-.3,0-.7.1-1.1.1-.9,0-1.8-.2-1.9-.2,0,0,1.5,0,2.7-.4,2.5-.6,3.5-5,3.5-5,0,0,.4,4.5-3.3,5.5h0Z" class="cls-1"></path>
                <g>
                  <path d="M50.4,51c-.2-.6-.5-1.2-.6-1.5-1,.8-2,1.4-2,1.4h-.1c0,0-.1,0-.1,0,0,0-1.4-1.2-1.3-2.6,0-.2,0-.4,0-.6-.2.2-.4.4-.6.6-.2.2-.5.5-.7.7h0c0,0,1.6.5,2.3,2.7.4,1.1.6,2,.6,2.2.1.1.3.2.4.3,0-.4.1-1,.7-1.5.7-.6,1.5-.6,2-.4-.2-.3-.5-.8-.7-1.3h0s0,0,0,0Z" class="cls-1"></path>
                  <path d="M54.6,52.7c-.4-.5-.8-1.1-.9-1.5-.4.5-1.3,1.2-1.7,1.5l.3.3h-.2c0,.2-1.4,1.3-.7,2.8,0,0,.1.2.2.3,1,0,2.1,0,3.4,0,.1,0,.3,0,.4,0,.1-.8.4-1.5.6-2.1-.5-.4-1.1-.9-1.4-1.3h0s0,0,0,0Z" class="cls-1"></path>
                </g>
                <g>
                  <path d="M52.2,25.7c-.7-.2-1.2-.7-1.4-1.3,0,0,0-.1,0-.2,0,0,0,0,0,0-.3.6-.5,1.5-.4,2.2,0,0,.2,0,.2,0,.6,0,1.2-.2,1.6-.7h0Z" class="cls-1"></path>
                  <path d="M56.9,28.4c0,0,.2,0,.3,0,.4-.5.6-1.2.7-1.9-.6.4-1.3.5-1.9.3,0,.7.4,1.3,1,1.5h0Z" class="cls-1"></path>
                </g>
                <g>
                  <path d="M57.5,23c.4.2.7.4.9.7.1.1.2.3.3.5.1.3.3.5.4.7.3-.4.3-.9.3-1.6,0,0-.4-.3-1.7-.9,0,.2,0,.4,0,.6h0,0Z" class="cls-1"></path>
                  <path d="M51.6,21.9h0c.1-.1.3-.2.4-.2.4-.1.8-.1,1.1,0,0-.3.2-.5.4-.7-1.6-.5-2.3-.4-2.3-.4-.4.4-.6,1-.5,1.8.2,0,.5-.2.7-.4,0,0,0,0,0,0Z" class="cls-1"></path>
                </g>
                <path d="M54.1,20.6c.1,0,.3-.2.5-.2,0,0,0,0,.1,0,.8-.3,1.3-.8,1.3-.8l.2-.2v.3c0,0,.3.7.8,1.4,0,0,0,0,0,.1.1.2.3.4.3.6,1.6.7,2.2,1,2.2,1,.9-.7,1.2-1.4,1.1-2.2,0,0-1-.8-4.4-2-3.2-1.1-4.5-1.2-4.5-1.2-.5.6-.9,1.2-.4,2.6,0,0,.8,0,2.6.5h0s0,0,0,0Z" class="cls-1"></path>
                <path d="M68.3,29.9c.4-.2.6-.6.5-1,0,0,0,0,0,0,0-.5,0-.9,0-.9h0s-.4,0-1,0h0c0,0-.2,0-.3,0-.4,0-.7.3-.8.6,0,0-.2.2-.3.2s-.2,0-.3-.2c0,0,0,0,0-.1-.2-.3-.6-.5-1-.5,0,0,0,0,0,0-.5,0-.9,0-.9,0h0s.1.4,0,1h0c0,0,0,.2,0,.3,0,.3.2.6.4.7.1,0,.2.2.2.3s0,.2-.1.3c-.9.9-1.9,1.2-2.6.8-1-.6-1.1-2.4-.1-4.1,0,0,0,0,0,0,.4-.1.7-.4.7-.8s-.4-.9-.9-.9-.9.4-.9.9,0,.3.1.4c0,0,0,.2-.1.3-.9,1.8-2.7,2.7-4.1,2-1-.5-1.4-1.6-1.3-2.9h0c0-.2.2-.4.3-.4s.1,0,.2,0c.5.4,1.1.4,1.6,0,0,0,0,0,0,0,.5-.3,1-.4,1-.4h0s-.4-.4-.7-1.1h0c0-.1,0-.2-.2-.3-.2-.3-.6-.5-.9-.6h0c-.2,0-.4-.2-.4-.3s0-.1,0-.2h0c.3-.4.2-1-.1-1.5,0,0,0,0,0,0-.4-.5-.5-1-.5-1,0,0-.4.3-1,.5,0,0,0,0-.1,0-.5.2-.9.6-.9,1.2h0c0,0,0,.1,0,.2-.1.2-.3.2-.5,0h0c-.3-.1-.7-.2-1.1,0-.1,0-.2,0-.3.1h0c-.6.4-1.1.5-1.1.5h0s.3.4.6,1c0,0,0,0,0,.1.2.6.8.9,1.4.9,0,0,.1,0,.2,0,.1.1.2.3.1.5h0c-.6,1.2-1.6,1.8-2.7,1.7-1.5-.2-2.5-2-2.3-3.9,0-.1,0-.2,0-.3.1,0,.3-.2.3-.3.3-.4.2-1-.3-1.3-.4-.3-1-.2-1.3.2-.2.3-.2.8,0,1.1,0,0,0,0,0,0-.2,1.9-1.3,3.4-2.4,3.3-.8,0-1.5-.9-1.7-2.2,0-.1,0-.2,0-.3,0-.1.2-.2.4-.2.3,0,.6-.1.8-.4,0,0,.1-.1.1-.2h0c.2-.5.6-.8.6-.8h0s-.4-.1-.8-.5c0,0,0,0,0,0-.3-.3-.7-.3-1.1-.2,0,0,0,0-.1,0-.1,0-.3,0-.4,0s-.2-.2-.2-.3c0-.4,0-.8-.3-1,0,0-.1-.1-.2-.1h0c-.5-.3-.8-.6-.8-.6h0s-.1.4-.4.8c0,0,0,0,0,0-.3.3-.3.8-.2,1.2,0,.1,0,.3,0,.5,0,.1-.2.2-.3.2h0c-.2,0-.5.2-.6.4,0,0-.1.1-.1.2h0c-.2.5-.6.8-.6.8h0s.4.1.8.5c0,0,0,0,0,0,.4.4,1.1.4,1.5,0,.1-.1.3-.2.5,0,0,0,.1.1.2.2h0c0,0,0,.1,0,.1.7,2.4,2.2,3.9,3.7,3.8.9,0,1.6-.7,2.1-1.5h0c.3,1.1,1,2,2,2.4,1.4.6,3,.2,4.2-.9.3,1.6,1.5,2.9,3,3.1,1.1.2,2.2-.2,3.1-.9h0c0,1,.3,2,.9,2.5,1.1,1,3.2.6,5.1-1,0,0,0,0,0,0h0c0,0,.2-.1.2-.1.2,0,.4.2.4.3,0,.6.6,1,1.2.9,0,0,0,0,0,0,.5,0,.9,0,.9,0h0s-.1-.4,0-1h0c0,0,0-.2,0-.3,0-.3-.1-.5-.3-.7h0c0-.1-.1-.3-.1-.4,0-.2,0-.3.2-.4h0s0,0,0,0ZM41.7,23.3c-.4,0-.7-.3-.7-.8s.3-.8.7-.8.7.3.7.8-.3.8-.7.8ZM53.9,24.1c0-.5.4-.8.8-.8s.8.4.8.8-.4.8-.8.8-.8-.4-.8-.8ZM66.4,31c-.4,0-.7-.3-.7-.7s.3-.7.7-.7.7.3.7.7-.3.7-.7.7Z" class="cls-1"></path>
                <path d="M44.1,30.2c0,.4-.3.7-.7.7s-.7-.3-.7-.7.3-.7.7-.7.7.3.7.7" class="cls-1"></path>
                <path d="M48.2,31c0,.4-.3.7-.7.7s-.7-.3-.7-.7.3-.7.7-.7.7.3.7.7" class="cls-1"></path>
                <path d="M53.1,32.2c0,.4-.3.7-.7.7s-.7-.3-.7-.7.3-.7.7-.7.7.3.7.7" class="cls-1"></path>
                <path d="M57.7,33.8c0,.4-.3.7-.7.7s-.7-.3-.7-.7.3-.7.7-.7.7.3.7.7" class="cls-1"></path>
                <g>
                  <path d="M46.1,31.2c-.5-.1-.9-.2-1.3-.3.2,0,.3-.2.3-.4,0-.2,0-.4-.4-.7-.1-.1-.2-.2-.3-.3.5,0,1.2.2,2.1.4-.1,0-.3.1-.5.2-.1,0-.2.2-.2.3,0,.2,0,.4.2.6h0Z" class="cls-1"></path>
                  <path d="M51.1,32.4c-.9-.2-1.6-.4-2.2-.6,0,0,.1,0,.1,0,.2,0,.3-.2.3-.4,0-.2,0-.4-.4-.7,0,0,0,0-.1-.1.9.2,1.8.5,2.7.7-.1,0-.2.1-.4.2-.1,0-.2.2-.2.3,0,.2,0,.4.3.6h0s0,0,0,0Z" class="cls-1"></path>
                  <path d="M55.5,33.8c-.7-.2-1.3-.4-1.9-.6.1,0,.2-.1.3-.2.2,0,.3-.2.3-.4s0-.3-.2-.5c.7.2,1.4.5,2.1.7-.1,0-.3.1-.5.2-.1,0-.2.2-.2.3,0,.1,0,.2,0,.4h0s0,0,0,0Z" class="cls-1"></path>
                  <path d="M59.6,35.4c-.4-.2-.9-.4-1.5-.6.1,0,.3-.1.4-.2.2,0,.3-.2.3-.4,0,0,0-.2,0-.3.8.3,1.4.6,1.8.8,0,0-.1,0-.2.1-.1,0-.3.1-.5.2-.1,0-.2.2-.2.4h0s0,0,0,0Z" class="cls-1"></path>
                </g>
                <path d="M61.9,35.5c0-.3-.3-.5-.7-.5s-.7.3-.7.6h.6c.5,0,.7,0,.7,0" class="cls-1"></path>
                <path d="M58.6,35.6c-1.7-.7-4-1.6-6.9-2.4-5.4-1.6-8.3-2-8.7-2-.6,0-.8.6-.2.7.5,0,3.1.3,8.7,2,2.2.6,4.1,1.3,5.6,1.9,0,0,.2,0,.5-.1.3,0,1,0,1,0" class="cls-1"></path>
                <polyline points="51.6 29.5 51.6 29.5 51.6 29.5 51.6 29.5" class="cls-1"></polyline>
                <path d="M54.3,30.3h0c-.6-.8-.9-1.5-.9-1.5,0,0-.2.3-1.5.6h0c0,0-.2,0-.3,0,.2,0,.5.1.7.2.7.2,1.3.4,1.9.6" class="cls-1"></path>
                <path d="M45.9,99.9s.5.4.8.8c0,0,.3.1.6.2.4,0,.6,0,.6,0,0,0-.7-.8-1.9-1.1" class="cls-1"></path>
                <path d="M112.8,32.5c-.2,0-.4,0-.5.2h0l-21.3,16c1.3.4,2.6.4,3.8.3h.4c0,0,0,.3,0,.3,0,0-.3,1.9-1.5,2.8-.5.4-1.2.6-1.9.5.2.5.4,1.3.4,2.5,0,1.3-.3,2.2-.5,2.5,0,.1.2.3.4.4.2,0,.4,0,.6,0,.8-.4,1.2-1.1,1.3-1.1l.3-.5.2.6c.5,1.8.4,3.4-.3,4.6-.5.8-1.4,1.4-2.4,1.5-1.7.3-2.8-.7-3.3-1.3-.5.6-1.9,2.1-3.9,2.6-1,.3-1.9.6-2.5,1v2.5s0,0,0,0c.2,0,.6-.4.6-1s-.3-1.7-.3-1.7c0,0,2.3,0,2.8,2.1.3,1.3-.2,2.5-.9,3.2,0,0-.3.2-.3.2-.6.5-1.3.8-2.1.9v5.1c.6-.8.7-1.6.8-2.4,0-.3,0-.5.1-.7,0-.3.2-.6.3-.9.4-1.2,1-2,1-2,0,0,.8.3,1.3.7.3.3.7.7.9,1.2.2.4.3.9.3,1.2,0,0,.1-.2.2-.3.7-1,1.7-1.5,3.1-1.5s1.7.3,1.8.3h.2c0,0,0,.3,0,.3,0,.8-.3,1.4-.5,1.8.3,0,.6,0,.9,0,.8,0,1.8.1,2.7.4,5.3,1.4,6.8,5.6,6.5,9.1-.3,3-1.5,4.1-2.6,5.2-.4.4-.8.8-1.2,1.2-.2.2-.2.5-.1.6,0,.2.2.2.5.2.6,0,1.2-1.3,1.3-1.8v-.5c.1,0,.5.3.5.3.5.5,1.3,1.5.9,3.1-.4,1.6-1.6,2.5-3.2,2.5s-1.8-.3-2.4-.8c-1-.7-1.3-1.5-1.4-2l-.6.4c.4.3.9.9.9,1.8,0,.8-.2,1.5-.7,2-.5.6-1.3.9-2.2.9s-1.9-.5-2.5-1.2c-.6-.8-.9-1.7-.8-2.7.2-1.5,1.4-2.7,2-3.3-1-.6-1.5-1.6-1.4-2.6,0-1.3.9-2.4,2.1-2.8.5-.2.9-.2,1.3-.2,1.6,0,2.3,1.1,2.3,1.1l.2.3h-.4c0,.1-.1.1-.2.1-.7,0-1.3.3-1.3.8,0,.2,0,.4.2.5.2.2.5.3.9.3.6,0,1.3-.2,1.9-.7,2-1.4,2.5-3.7,2.6-4.1-.2-.4-1.1-1.9-3.2-2.9-.9-.4-1.8-.6-2.7-.6s-1,0-1.3.2c1.1.7,1.2,2.1,1.1,2.8v.2s-.2,0-.2,0c0,0-1.1.4-2.5.4s-1.5-.1-2.1-.4c-.9-.4-1.6-.5-2.1-.5.7.7,1.2,1.6,1.2,2.6,0,.8-.2,2-1.4,3h0c0,0-.1,0-.1,0-.2,0-.2,0-1.2-1.2-.4-.4-.8-1-1.1-1.3,0,0-.1-.1-.2-.2v41.8h0c0,.6.4,1,1,1h29.7c.5,0,1-.4,1-1V33.4h0c0-.5-.4-1-1-1h0Z" class="cls-1"></path>
                <path d="M63.6,66.6c0-.1,0-.2-.2-.3l.2.3Z" class="cls-1"></path>
                <path d="M62.3,65.7c-.4,0-1,0-2.2.3-1.3.3-3.2,1.1-4.7,2.2-3.2,2.3-5.6,4.6-7.2,4.5-.6,0-.8-1,0-2.6,0,0-2,2-1.3,3.1.8,1.1,3,.3,5.1-1.2,3.1-2.3,4.7-4.3,7.7-5.1,1.6-.5,2.5-.5,3-.3l-.3-.6s-.1,0-.2-.1h0s0,0,0,0Z" class="cls-1"></path>
                <path d="M44.5,43.8s-1.4-1.3-3-1.5-2.5.3-2.5.3c0,0,1.3-.1,2.3.1.9.2,1.5.6,1.9,1l1.3.2Z" class="cls-1"></path>
                <path d="M59,31.4c-.1,0-.3.1-.4.2-.2,0-.4.1-.5.1.5.2.9.4,1.3.5-.1-.3-.2-.5-.3-.9Z" class="cls-1"></path>
                <path d="M47.5,28.1c-.1-.1-.2-.3-.3-.4-.2.2-.5.4-.7.5.4,0,.9.2,1.4.3-.1-.2-.3-.3-.4-.4Z" class="cls-1"></path>
                <path d="M61.8,33.8l-1.9-.9c-.8-.3-1.8-.8-3-1.2l-2.2-.8c-.8-.3-1.6-.5-2.5-.8-.5-.1-.9-.3-1.3-.4l-2.2-.6c-1.2-.3-2.2-.5-3-.7,0,0-2.2-.4-2.2-.4-.6,0-.8.6-.2.7.5,0,3.1.3,8.7,2,5.6,1.6,9.2,3.4,9.5,3.6.4.3.8-.2.3-.6h0s0,0,0,0Z" class="cls-1"></path>
              </g>
              <path d="M64.5,48.1c-.5-.7-.7-1.7-.7-1.7-.4.1-.5.5-2.1.3-1.5-.2-1.6-1.3-1.6-1.3,0,0,.5.5,1.3.7s1.6-.2,2.6-.5,2.5,0,2.5,0c0,0,0-1-1.5-1.6-1.1-.4-2-.2-2-.2,1.1-1.8,3.7-1.8,3.7-1.8-.8-.6-1.5-.2-3.1-.3-1.3-.1-1.8-.8-1.8-1.1-1.4,0-3.1-.5-3.3-.7,0,0,.7.2,2,.2,1.3,0,3.1,0,4.5-1.6.9-1,1.6-2.3,1.6-4-.2.2-.4.4-.8.6-.8.5-1.6.8-3.9.9-.5,0-3.8-.1-4.8.5-.6.3-.9.9-.9.9,0,0-.4-.5,0-1.1-1.1-.4-3.4-1.3-6.8-2.2-3.6-1-5.8-1.3-6.7-1.4h0c-.6.5-1,.8-1.4,1.7-.4,1,.1,1.8.7,1.8.7,0,.5.4.2.4-.3,0-.4,0-.7,0-1.5,0-3.8-.4-5.3.7-.9.6-1.4,2.1-1.1,3.5.3,1.1.7,1.6.7,1.6,0,0,.7-1.5,3-1.4,1.5,0,2.9.5,5.2,1.9,1.4.9,1.9,1.6,1.9,1.6,0,0-2.5-.1-4.4-.5-2.1-.5-3.2,0-3.2,0,0,0,2.2.5,4.4,1.4,1.8.7,4.5,1.2,6.8.7,0,0,0,0,0,0,0,0,0,.6-2.4.7-.9,2.1.4,3.1.4,3.1,2.1-1.1,3.2-2.8,3.2-2.8,0,.7-.6,1.4-.6,1.4.5,1.6,1.2,3.2,1.3,3.1.6-.4,1-.8,1.6-1.6.4-.6.6-1.4.7-1.8h0c-.2-.3-.3-.8-.2-1.1,0-.3.4-.7.4-.7,0,0,.1.6.4,1.1.3.5.7.8.7,1,1.1-.9,1-2.7,1-3.5,0-.2-.1-.8-.1-.8,0,0,.3.2.5.6.2.5.7,2.2-.2,3.6-.5.8-1,1.4-1,1.4h-.1c0,.1,0,0,0,0-.3-.5-.5-.8-.6-1-.2.6-.4,1.4-.3,1.7.5,1.8,3,3.5,3,3.5,0-1.1.2-1.6.3-2,0-.1-.1-.2-.2-.3-.6-.9-.7-2.5-.7-2.6h0c0-.1.6,1.6,1.8,3.1,0,0,0,0,0,0,1.1,1,2.4,2.5,2.4,2.5,1.3-1.8,0-5.7,0-5.7,1.2,1.4,1,2.1,1.9,3.3.7.9,1.3,1.3,1.3,1.3,0,0,.5-.8.2-1.7-.3-.8-.2-1.3-.2-1.3,1.7-.5,2.5.6,2.5.6.7-1.5-1.5-2.1-1.9-2.8h0,0ZM39.3,37.3c-.4.2-.2.6-.2.6,0,0-.8-.3-.5-.7.3-.5,1.2-.3,1.8-.2.6.2,1.2.6,1.2.6,0,0-1.7-.8-2.3-.4h0s0,0,0,0ZM45.5,37.2c-.1.2-.6.9-1.7.9-.2,0-.4,0-.5-.1.4,0,.7-.4.7-.9,0-.3-.3-.5-.5-.6.2,0,.3,0,.5,0,0,0,1.6,0,2.8,1.3,0,0-.6-.2-1.2-.4h0,0ZM57,39.4s-.5-1.4,1.9-1.7c2.5-.3,5.3-.8,6.2-1.4,0,0-.2.6-1.2,1-1,.4-3.9.9-5,1.1-1.1.3-1.2.6-1.2.6l.8.3s-1.3.2-1.6.2c0,0,0,0,0,0Z" class="cls-1"></path>
              <path d="M72,102.1c-.7-.7-1.5-2-3.1-2.5s-4.4-.6-5.9-.9c-1.4-.3-2.4-.8-2.6-1,0,0,1,.3,2.1.4,1.1,0,2.5-.3,4.2-1,.9-.4,3-1.1,3.6-2.2-.2.1-1.6.9-3.4.7-1.7-.2-2.4-.9-4.1-1-2.3-.2-3,0-3.5.2-.5.2-.7.7-.7.7,0,0-.3-.6.1-1.1,0,0-1.1-.5-3.2-1.3s-3.3-1.1-5.5-1.8c-1.9-.5-3.1-.7-3.1-.7-.7.8-.9,1.6-.5,1.9.1,0,.4.2.3.6,0,.3-.3.4-.7.3-1.6-.2-4.6-.6-6.4.3-1,.5-1.8,1.9-1.5,3.5.2,1.1.7,2.1.7,2.1,0,0,1-1.7,3.6-1.4,2,.3,3.3.8,4.9,2,1.4,1.1,1.7,2.2,1.7,2.2,0,0-1.5.1-3.9-.7-1.7-.6-3.1-.2-3.1-.2,0,0,2.4.3,4.1,1.1,3.4,1.5,4.7.8,4.7.8,0,0,.2.2.2.5.1.3,0,.7,0,.7,0,0-.4-.5-1.1-.5s-1.4,0-2.6-.4c0,0-.4.6-1,1.1-1.1.9-2.3,1.8-2.2,3.3,0,1.4,1,2.6,1,2.6-.4-1.7.7-3,2.3-3.7,0,0-.2.7-.4,1.9-.2,1.4-.2,2.6.4,3.4.7.9,1.5,1.3,1.5,1.3,0,0-.4-1.1.3-2.3.4-.6,1.1-1.3,1.9-1.7.1-.8.6-1.4,1-1.9.2-.3.5-.6.6-.9.3-.8.3-1.9.3-1.9v-.3s.2.3.2.3c0,0,.6.7,0,2.4-.2.5-.4.8-.5,1-.2.3-.4.6-.6,1.3-.2.7-.2,1.5-.2,2.1,0,.2,0,.3.1.5.5,1.5,1,2.1,1.2,2.9.2.8.2,1.2.2,1.2,0,0,1.3-.5,2.2-1.7.7-.9.7-3.6.7-3.6,0,0,.7,1.2,1.7,2.3,1,1.1,2,2.3,1.8,3.6,0,0,1-.5,1.7-1.9.6-1.2.9-2.1.8-3.3-.2,0-.4-.2-.6-.4-.9-.7-1.3-1.4-1.5-1.9,0,0,0,0,0,0-.5.7-.9,1.2-.9,1.2h-.1c0,.1,0,0,0,0-.3-.5-.6-.8-.9-1-.2-.2-.4-.4-.5-.6-1.4-1.7-.7-3-.7-3h0c.7,2.5,1.9,3.3,2.2,3.5,1.1-.9,1.1-2.2,1.1-2.8,0-.1,0-.2,0-.3h0c0-.1.2,0,.4.4,0,0,0,.2,0,.3,0,.3.2.8-.1,1.6.1.4.4.9,1,1.4.5.4,1,.8,1.5,1.1.6.2,1.4.6,2,1.2.9.9,1.4,1.7,1.7,2.5,0,0,.8-.4.9-1.8,0-1.4-.5-3.4-1.2-4.8,0,0,1.3,0,2.1.7.8.6,1.2,1.2,1.2,1.2,0,0,.5-.6.3-1.8-.2-1-.8-2.1-1.4-3h0c0-.1-.2-.2-.3-.3,0,0,0,0,0,0-.1-.1-.2-.3-.4-.4-.8-.8-2.1-1.4-2.1-1.4,0,0,1.6.2,2.4.8,1,.7,1.2,1.2,1.2,1.2.4,0,1,0,1.6-.1,1.6-.3,2.3-1.4,2.7-2.2,0,0-1.1.6-1.8,0h0s0,0,0,0ZM43.7,94.1c-.4.2-.3.4-.3.4v.2c0,0-.2,0-.2,0,0,0-.6-.2-.6-.6,0,0,0-.2,0-.4.4-.5.8-.5,1.5-.3.7.3,1.2,1,1.2,1,0,0-1.1-.7-1.7-.4h0s0,0,0,0ZM49.4,94c-.2.3-.8.8-1.7.6-.2,0-.4-.1-.5-.2.4,0,.8-.4.8-.8,0-.4-.3-.6-.6-.7.2,0,.4,0,.6,0,0,0,1.3.1,2.2,1.7,0,0-.4-.2-.8-.5h0ZM59.4,96h0c0-.1,0-.5.4-.8.4-.3,1-.3,1.8,0,2.8.8,4.7,1.1,5.4.9h.4c0,0-.3.2-.3.2,0,0-.4.4-1.3.4h0c-.6,0-2.1-.3-3.3-.5h-.1s.2.6.2.6l-1.2-.8c-.5,0-.8,0-.9,0l.4.4v.2c-.2,0-1.2-.3-1.5-.4h0s0,0,0,0Z" class="cls-1"></path>
            </g>
          </g>
        </g>
      </g>
    </g>
  </g>
</svg>