<svg viewBox="0 0 1004 150" version="1.1" xmlns="http://www.w3.org/2000/svg">
  <defs>
    <style>
      .cls-1 {
        fill: #01351c;
      }
    </style>
  </defs>
  
  <g>
    <g id="Layer_1">
      <g data-name="Layer_1" id="Layer_1-2">
        <g id="Layer_1-2">
          <g>
            <g>
              <g>
                <path d="M102.6,107c0,0,0,.1,0,.1s0,0,.1,0,.1,0,.2,0c.1-.1.1-.3,0-.5,0,0,0,0,0,0-.2.1-.4.3-.4.4h0,0Z" class="cls-1"></path>
                <path d="M60.5,103.5c-.8-.2-1.5-.5-2.1-.6,0,0,0,0,.1,0,.2,0,.3-.2.3-.4,0-.2,0-.4-.3-.7,0,0,0,0,0,0,.8.2,1.6.5,2.4.8-.1,0-.2,0-.3.2-.1,0-.2.2-.2.3,0,.2,0,.4.2.6h0Z" class="cls-1"></path>
                <path d="M64.8,105c-.6-.2-1.2-.5-1.8-.7.1,0,.2,0,.3-.1.2,0,.3-.2.3-.4,0-.1,0-.3-.1-.4.7.3,1.3.5,1.9.8-.1,0-.3.1-.4.2-.1,0-.2.2-.2.3,0,.1,0,.2,0,.3h0Z" class="cls-1"></path>
                <g>
                  <path d="M71.7,102.2c.3.2.6.2,1.1-.2-.2-.3-.3-.6-.3-1,0-.2,0-.3,0-.5.1-.7,0-1.3,0-1.5-.2.3-.4.5-.8.6-.4,1.1-.7,2.1-.1,2.5h0Z" class="cls-1"></path>
                  <path d="M54.7,96.2c.7.1,1.3-.7,1.6-2.1-.2-.3-.2-.7,0-1.1h-.1c0,.1-.5.6-.9,1.3,0,.1-.2.3-.3.4-.3.3-.5.5-.9.5.2.7.3.9.7,1h0s0,0,0,0Z" class="cls-1"></path>
                </g>
                <g>
                  <path d="M68.6,103.5c0-.2-.2-.5-.2-.7-.1,0-.3.1-.5.2,0,0-.2,0-.3,0,.4.2.7.3,1,.5Z" class="cls-1"></path>
                  <path d="M63.3,101.1c-.2-.3-.3-.6-.4-.7-.2,0-.4.2-.8.3.4.1.8.3,1.1.4h0Z" class="cls-1"></path>
                  <path d="M57.5,99.3s0,0,0,0c-.1-.2-.2-.4-.3-.6-.2.2-.4.3-.6.4.3,0,.6.2.9.2h0s0,0,0,0Z" class="cls-1"></path>
                </g>
                <path d="M37.5,116.1l-9-11.8.3-.2,8.8-6.8v-33.6L3.7,38.3c-.2-.1-.4-.2-.6-.2-.6,0-1.1.5-1.1,1.1h0v104.9c0,.6.5,1.1,1.1,1.1h33.3c.6,0,1.1-.5,1.1-1.1h0s0,0,0,0v-28.1h0s0,0,0,0Z" class="cls-1"></path>
                <path d="M85.5,107.5l-21-27.4h0s-.6-.6-.6-.6c-.7.4-1.6,1.2-2.6,2-2.1,1.8-4.5,3.7-6.7,4.1l-24.5,19,22.1,28.8c1.9,2.4,7.9,8.8,17,4.6,9.4-4.4,10.7-3,10.7-3,0,0-.8-1.9,5.6-9.7,6.1-7.4,1.7-15.3,0-17.7h0ZM83.9,115.3c-.3,2.1-.9,3.2-2.3,4.1-.9.6-2.1.7-2.8.7h0c.5.8.8,1.5.9,2.8.3,2.2-1.4,3.5-1.5,3.5l-.4.3v-.5c-.3-1.1-1-1.8-1.5-2.1.3.8.7,2.2.7,3.6-.1,2.8-2.2,3.7-2.3,3.7h-.3c0,.1-.1-.2-.1-.2,0,0-.6-2-1.7-3.1-.6-.6-1.3-1-1.8-1.2,0,.8-.1,1.9-.8,3.4-1.1,2.7-3.6,3.2-3.7,3.3h-.5c0,.1.1-.4.1-.4.2-1.1-.3-2.6-1.4-3.9-.3-.3-.5-.6-.7-.9-.3,2.3-2.1,3.2-3,3.6-.9.4-1.8.6-1.9.7h-.5c0,.1.1-.4.1-.4.3-1.1-.3-2.4-.9-3.6l-.2-.4c-.5-1-.5-2.2-.5-3-.3.2-.6.5-.9,1-.8,1.3,0,3.1,0,3.1l.3.7-.7-.3c-.1,0-2.9-1-3.8-2.7-.3-.6-.6-2.4-.5-3.1-.6.9.2,3.3.2,3.3l-.7-.5c0,0-2.3-1.8-2.5-4-.2-2.2.3-3.1,2.2-4.6.1,0,.2-.2.3-.2.2-.1.5-.3.7-.7-.5-.2-1.5-.7-2.5-1.1-1.7-.6-3.5-.7-3.5-.7h-.5s.2-.5.2-.5c.4-1,2.1-1.4,4.5-1,.4,0,.8.1,1.1.2-.2-.2-.6-.4-1-.5-1.3-.4-2.7,0-3.8-.2,0,0,1.4-.9,3.7-.6-.7-.2-1.4-.5-2.4-.7-2.6-.2-3.3.8-3.6,1.5-.1.3-.4.8-.4.8h0s-1.5-1.5-1.9-3.7c-.4-2,.6-4.3,1.9-5.1,1.9-1,5.7-.8,7.1-.7,0-.5,0-1.3,1-2.4,0-.2-.1-.4,0-.8,0-.3.3-.5.5-.6-.3-.3-.3-.9,0-1,.2-.1.3-.2.5-.3-.6-.7-.2-1.4.3-1.6-.7-.7-1.2-1.6-1.5-2.8-.7.3-1.5.2-2.1-.4,0,0,0,0,0-.1-.6-.5-1.1-.7-1.1-.7h0s-.1-.2-.1-.2h.1c0-.1.5-.6.9-1.3h0c0-.2.2-.3.3-.4.2-.2.4-.4.7-.5,0-.6,0-1.2.5-1.6,0,0,0,0,.1-.1.5-.5.7-1.1.7-1.1h0s.2-.2.2-.2h.1c0,.1.4.7,1.2,1.1h0c.1.1.2.2.3.3.3.3.5.6.5,1,.5,0,1.1.2,1.4.5,0,0,0,0,.1.1.5.5,1.1.7,1.1.7h0s.1.2.1.2c0-.2.2-.4.3-.6.2-.3.6-.5,1-.6.5,0,1,0,1.3.3.3.3.6.7.6,1.2,0,.5-.1.9-.4,1.3,0,0,0,0,0,0-.2,1.5.3,2.7,1.4,2.9.6,0,1.1,0,1.5-.5-.6-.1-1-.6-1.3-1.3,0,0,0-.1,0-.2-.3-.7-.7-1.3-.7-1.3h0c0,0,0-.2,0-.2h.1c0,0,.8-.3,1.6-.8h0c.1-.1.3-.2.5-.2.4-.1.7,0,1.1,0,.1-.6.6-1.1,1.3-1.3,0,0,.1,0,.2,0,.8-.3,1.4-.7,1.4-.8l.2-.2v.3c0,0,.3.8.7,1.5,0,0,0,0,0,.1.4.5.5,1.3.2,1.8.3.1.7.3.9.6,0,.1.1.3.2.4,0,0,0,0,0,.1.3.9.9,1.5.9,1.5h0c0,0-.8.5-1.5.9h0c0,0,0,0,0,0-.7.4-1.3.5-1.8.2,0,.6.4,1.1.9,1.4.9.5,1.9,0,2.9-1.3,0-.2-.1-.4-.1-.6,0-.9.8-1.5,1.7-1.5.8,0,1.7.7,1.7,1.7s0,.5-.1.7h.1s.6.1,1.4,0h0c.5,0,1.1.2,1.5.6.3-.3.7-.5,1-.5.1,0,.3,0,.4,0h0c.8.1,1.5,0,1.5,0h.2s0,.2,0,.2c0,0,0,.6,0,1.3h0c0,.7-.2,1.3-.7,1.7.2.2.3.5.4.8,0,.2,0,.3,0,.4-.1.8,0,1.5,0,1.5v.2s-.2,0-.2,0c0,0-.6,0-1.3,0,0,0,0,0,0,0-1.1.1-1.6-.5-1.9-1-1.1.7-2.1,1.1-3,1.2.2.4,0,.7-.3.9,0,0,.1.1.1.3,1,.2,1.7.4,2.3.7.5.2.9.3,1.3.4.9,0,2-.2,2.9-.5.6-.2,1.8-.9,1.8-.9.3,1-.9,3.3-2.7,4.2l-.3.2c-.6.3-1.3.7-2.5,1.1.7,0,1.5.2,2.4.4,1.9.4,3.2,1.9,4,2.7.2.2.3.4.4.5.5.4,1.7-.2,2.1-.4l.6-.4v.7h-.1Z" class="cls-1"></path>
                <path d="M40.6,70c-.2.6-.3,1.4,0,1.9.2.3.4.5.8.6.3,0,.7.1,1.2.1,2.5,0,6.3-1.1,6.7-1.2,1.2-.9,1.8-2.4,2.1-3-3.2,1.6-7.2,2.7-9.8,2.7s-.5,0-.6-.3c-.2-.2-.2-.5-.3-.7h0s0,0,0,0Z" class="cls-1"></path>
                <path d="M78.1,99.9h0s-.4,0-.9,0h0c0,0-.2,0-.3,0-.4,0-.7.3-.9.6,0,0-.2.1-.3.1-.1,0-.2,0-.3-.2,0,0,0,0,0-.1-.2-.3-.5-.5-.9-.5,0,0,0,0,0,0-.5,0-.8-.1-.8-.1h0s0,.4,0,1h0c0,0,0,.2,0,.3,0,.3.2.6.4.7.1,0,.2.2.2.3,0,.1,0,.2-.1.3-.9.8-1.9,1.1-2.6.7-1-.6-.9-2.4,0-4,0,0,0,0,0,0,.4,0,.7-.4.7-.8,0-.5-.4-.9-.9-.9s-.9.3-.9.8c0,.2,0,.3.1.4,0,0,0,.2-.1.3-1,1.7-2.8,2.5-4.1,1.7-.9-.5-1.3-1.7-1.1-2.9h0c0-.2.2-.3.4-.3,0,0,.1,0,.2,0,.4.4,1.1.4,1.6.1,0,0,0,0,0,0,.5-.3,1-.4,1-.4h0s-.4-.4-.6-1.1h0c0-.1,0-.2-.1-.3-.2-.3-.5-.5-.9-.6h0c-.2,0-.3-.2-.3-.3,0,0,0-.1,0-.2h0c.3-.4.3-1,0-1.4,0,0,0,0,0,0-.3-.5-.4-1-.4-1,0,0-.4.3-1,.5,0,0,0,0-.1,0-.5.1-.9.6-.9,1.1h0c0,0,0,.1,0,.2-.1.1-.3.2-.5,0h0c-.3-.2-.7-.2-1,0-.1,0-.2,0-.3.1h0c-.6.3-1.1.4-1.1.4h0s.3.4.6,1c0,0,0,0,0,.1.2.6.7.9,1.3.9,0,0,.1,0,.2,0,.1.1.2.3,0,.4h0c-.6,1.1-1.7,1.7-2.7,1.5-1.5-.3-2.4-2-2.1-3.9,0-.1,0-.2,0-.3.1,0,.3-.1.3-.3.3-.4.2-.9-.2-1.2s-1-.2-1.2.1c-.2.3-.2.7,0,1,0,0,0,0,0,0-.3,1.9-1.4,3.2-2.5,3.1-.8-.1-1.4-1-1.5-2.2,0-.1,0-.2,0-.3,0-.1.2-.2.4-.1.3,0,.6-.1.8-.3,0,0,.1-.1.2-.2h0c.3-.5.6-.8.6-.8h0s-.4-.2-.7-.5c0,0,0,0,0,0-.3-.3-.7-.3-1-.2,0,0,0,0-.1,0-.1,0-.2,0-.3,0s-.2-.2-.2-.3c0-.3,0-.7-.3-1,0,0-.1-.1-.2-.2h0c-.5-.3-.7-.6-.7-.6h0s-.1.4-.4.7c0,0,0,0,0,0-.3.3-.4.7-.2,1.1,0,.1,0,.3,0,.4,0,0-.2.2-.3.2h0c-.2,0-.5.1-.6.3,0,0-.1.1-.2.2h0c-.3.5-.6.8-.6.8h0s.3.2.7.5c0,0,0,0,0,0,.4.4,1,.4,1.4,0,.1-.1.3-.2.5,0,0,0,.1.1.1.2h0c0,0,0,.1,0,.1.5,2.4,2,3.9,3.4,3.8.8,0,1.6-.6,2.2-1.4h0c.2,1.1.9,2,1.9,2.5,1.3.7,2.9.3,4.1-.7.3,1.6,1.3,2.8,2.7,3.2,1.1.2,2.1,0,3-.7h0c0,1,.2,1.9.8,2.5,1.1,1,3.1.7,5-.8,0,0,0,0,0,0h0c0,0,.2-.1.2-.1.2,0,.3.2.4.4,0,.6.5,1,1.1.9,0,0,0,0,0,0,.5,0,.8,0,.8,0h0s0-.4,0-1h0c0,0,0-.2,0-.3,0-.3-.1-.5-.3-.7h0c0-.1-.1-.3-.1-.4,0-.2.1-.3.2-.4.4-.2.6-.6.5-1,0,0,0,0,0,0,0-.5.1-.8.1-.8h0s0,0,0,0ZM51.9,94.3c-.4,0-.7-.4-.7-.8,0-.4.4-.8.8-.7.4,0,.7.4.7.8,0,.4-.4.8-.8.7h0ZM64.5,96.5c-.5,0-.8-.4-.8-.9s.4-.8.9-.8c.5,0,.8.4.8.9s-.4.8-.9.8h0ZM75.4,102.7c-.4,0-.7-.4-.7-.8,0-.4.4-.7.8-.7.4,0,.7.4.7.8,0,.4-.4.7-.8.7Z" class="cls-1"></path>
                <path d="M55.8,102.1c-.4-.1-.8-.2-1.2-.3.1,0,.2-.2.2-.3,0-.2,0-.4-.3-.7,0,0-.2-.2-.2-.2.5.1,1.1.3,1.9.5-.1,0-.3.1-.4.2-.1,0-.2.2-.2.3,0,.2,0,.4.2.5h0Z" class="cls-1"></path>
                <path d="M53.9,101c0,.4-.3.7-.7.6-.4,0-.7-.3-.6-.7s.3-.7.7-.6c.4,0,.7.3.6.7" class="cls-1"></path>
                <path d="M57.9,102c0,.4-.3.7-.7.6s-.7-.3-.6-.7.3-.7.7-.6c.4,0,.7.3.6.7" class="cls-1"></path>
                <path d="M62.6,103.4c0,.4-.3.7-.7.6s-.7-.3-.6-.7.3-.7.7-.6c.4,0,.7.3.6.7" class="cls-1"></path>
                <path d="M67,105.1c0,.4-.3.7-.7.6s-.7-.3-.6-.7c0-.4.3-.7.7-.6.4,0,.7.3.6.7" class="cls-1"></path>
                <path d="M68.7,106.7c-.4-.2-.9-.4-1.3-.6.1,0,.2-.1.3-.2.2,0,.3-.2.3-.4,0,0,0-.2,0-.3.7.3,1.3.6,1.6.8,0,0-.1,0-.2,0-.1,0-.3.1-.5.2-.1,0-.2.2-.2.3Z" class="cls-1"></path>
                <path d="M71,107c0-.3-.3-.6-.6-.6-.4,0-.7.3-.7.6,0,0,.2,0,.6,0,.5,0,.7,0,.7,0" class="cls-1"></path>
                <path d="M67.8,106.9c-1.6-.7-3.8-1.7-6.6-2.7-5.2-1.8-8-2.3-8.4-2.3-.6,0-.8.5-.2.7.5.1,3,.5,8.4,2.3,2.1.7,3.9,1.4,5.3,2.1,0,0,.2,0,.5,0,.2,0,1,0,1,0" class="cls-1"></path>
                <path d="M53.2,99.7c.5.1,3,.5,8.4,2.3,5.3,1.8,8.8,3.7,9.1,3.9.4.3.8-.3.2-.6-.4-.2-3.8-2.1-9-3.9-5.2-1.8-8-2.3-8.4-2.3-.6,0-.8.5-.2.7" class="cls-1"></path>
                <path d="M64.5,78.7s1.1-1.2,3.8-1.7c2-.4,3.5-.1,3.1,1.2-.3,1-1.6,1.1-3.3,1.3-.9,0-1.7,0-2.2,0-.5,0-1-.4-1.3-.8h0" class="cls-1"></path>
                <path d="M53.1,65.8c0,.6-.5,3.2-2.2,5.2.6-.2,1.6-.5,2.9-.9.8-.3,1.5-.5,2.2-.7.4-.1.7-.2,1.1-.4-.4-.2-1.4-.8-2.3-1.5-1-.9-1.8-1.7-1.8-1.7Z" class="cls-1"></path>
                <g>
                  <path d="M49.5,57.5c-.3.4-.6.7-1,1.1.2,0,.3.2.5.3,0-.4.1-.9.4-1.4h0Z" class="cls-1"></path>
                  <path d="M49.8,62.8c-1-.7-1.8-1-2.3-.7-.6.4-.8,1.3-.6,2.2v.5c.1,0-.3-.2-.3-.2,0,0-.9-.5-1.7-1.3-1.1,1.5-2.1,2.8-2.6,3.6,0,0-1.2,2.5.6,2.3,2.1-.2,5.9-1.2,9.5-3.2v-1s-1.8-1.6-2.6-2.2h0s0,0,0,0Z" class="cls-1"></path>
                </g>
                <path d="M92.6,73.5c3.2-2.8,2.9-4.6,2.9-4.6-2.2,2.2-5.4,2.4-5.4,2.4,0,0-2,1.2-2.7,3.8-.7,2.7.5,5.1,2.7,5.7,2.2.6,4-.5,4.3-1.7.7-2-.8-3-.8-3,0,0,.7,1.8-.8,2.5-1.4.6-3.2,0-3.1-2.2.1-2.2,2.8-3,2.9-3" class="cls-1"></path>
                <path d="M105.9,103.6c-.4,3.3,3,4.1,4.4,3.6,1.7-.6,2.1-2.3,1.6-3.4,0,0-.3.7-.9,1.2-.7.5-2,.5-2.5-.4-.7-1.4.3-2.1,1.6-3.3,1.7-1.6,1.7-2.1,1.7-2.2-.4-2.3-1.1-3.4-1.1-3.4-.4,1.6-2.4,6.4-6.9,5.2-.7-.2-1.4-1.4-.9-2.3.4-.8,1.2-.9,1.2-.9,0,0-1-.5-2-.2-1.2.4-2,1.3-2,2.4,0,1.6,1,2.2,2.5,2.6,0,0-.9.8-2,1.8-1.1,1.1-1.8,3-.5,4.5,1.2,1.5,3.5,1.2,4.1-.2.5-1.1,0-2-.4-2.3,0,0,0,0,0,0,.3,1.3-.5,1.8-1.3,1.7-.6,0-1-.6-1-1.2,0-.4.4-.8,1.2-1.3l3.2-2.1" class="cls-1"></path>
                <path d="M103.4,86.5c-3.2.1-4.4.6-4.4.6.4-.3,1-.8,1.6-1.4,1.2-1,1.2-1.9,1.2-1.9,0,0-2.8-.5-3.9,1.6-.4.7-1.6,2-2.3,2.2-.5.2-.6.2-.6.2.7-.6,1-1.4,1.1-2.9.1-1.5-1.3-2.5-1.3-2.5,0,0-.7,1.5-.9,2.6-.3,1.8-.3,2.9-1.8,4.2-2,1.7-3.7,1.7-5.6,1.9,0,0,1,1.1,2.6,2.3,2.3,1.7,3,2.2,4,3.4,1.1,1.3,1.7,2,1.7,2,0,0,1.6-1.7.2-3.6-.9-1.2-2-2-2-2,0,0,1.3-.5,2.4-.4,1.3.2,2.5.6,3.6.8,1.1.2,3-.2,3-.2,0,0,0-1.5-1.2-1.8,0,0-1.3-.6-1.2-.7,1.4-1.1,2.8-1.3,4.4-1.1,3.7.5,5.6,2.8,6.5,4.1,1.8,2.6,1.2,5.3,1.3,5.2,3.1-5-.4-13-8.3-12.7h0s0,0,0,0ZM96.2,90.9c-1.9.8-3.8.6-3.9.6h0s2-.8,3.6-1.3c1.6-.5,2.6-1.1,2.6-1.1h0s-.7,1.1-2.3,1.8h0Z" class="cls-1"></path>
                <path d="M103,67.9c-1.2-.2-1.6-1.4-1.6-1.4,0,0,.5-.9.6-2.8,0-1.4-.3-2.3-.6-3.1-.3-.8-.8-1.3-1.2-2-.3-.4.2,0,.2,0,.6.6,1.2.8,1.2.8,2.9,1.1,3.7-1.8,3.7-1.8-.7,0-1.8,0-2.7,0-1.1-.2-2-.4-3.6-1.2-1.1-.6-1.9-1-3.3-1.3.7.3,1.3.8,1.9,1.3,1.7,1.5,2.2,3.5,2.1,5.4-.1-2.3-1-4-2.6-5.2-3-2.2-7.9-1.9-11.2-1,0,0,2.6-.9,4.6-1.2.5,0,1.1-.2,1.6-.2,1.3-.6,1.1-2.7,1.1-2.7-2.1-.2-3.3,1.6-6.4,2.4-2.7.7-5,2.5-6.3,5.9,0,.2,0,.4.1.6.1.7.2,1.4.2,1.9.1-.2.2-.5.3-.7.5-1.1,1.5-2.5,3.4-3.7,2-1.2,4.3-1.2,5.8-.8,2.2.7,2.9,2,3.2,2.6.4.7.4,1.5.3,1.7-1.1,1.3-2.3.9-3.1,0-.7-.8-1.5-1.2-1.5-1.2-.5,1-.7,2.3.2,3.6,1.2,1.7,4.4.3,4.4.2,0,0,0,.5-.5,1.4-.9,1.5-2.9,2.2-4.5,1.6-1.4-.5-3-.4-3-.4,0,0,.6,3.4,2.7,3.9,2.8.7,6-1.4,7.5-2.7,0,0,.8,2.3-2.1,5.3,0,0,.5-.2,1.2-.5,1.8-1.2,2.3-1.7,3.4-3.6,1.1-1.9,1.3-5.2,1.3-5.3h0s.4,3.4-.4,5.3c0,.3.1,1.7,2.3,2.1,2.3.4,3.8-1.7,3.4-4.1,0,0-.7,1-2.1.8h0s0,0,0,0Z" class="cls-1"></path>
                <path d="M61.9,65.3h-.3c-1.1,0-1.8,0-3.1.1.4.4,1,1,1.7,1.3,1,.4,2,.5,2.1.5-.2-.5-.4-1.1-.4-1.9h0s0,0,0,0Z" class="cls-1"></path>
                <path d="M64.8,68.8c0-.7,0-1.2,0-1.6,0,0,0,0,0,0-.4.6-1.5,1.1-1.5,1.1h-.2c0,0-.1,0-.1,0,0,0,0-.1-.2-.3-.9,0-1.9-.1-3-.7-1-.5-2.6-1.6-3-3.1-.5-1.5,0-2.3.7-3,0,0-1.1-.8-2.1.2-.7.7-.2,2.3-.2,2.3,0,0-.7-.2-1.4-.7-.1,0,0,.5.1,1.1.1.4.5,1.4.5,1.4,4.7,4.5,8.3,4.4,10.4,3.5,0-.2,0-.3,0-.5h0Z" class="cls-1"></path>
                <g>
                  <path d="M68.5,74.5c-.2-.2-.3-.3-.4-.5,0,0,0,.1,0,.2-.1.3-.3.4-.4.5.3,0,.6-.2.9-.2h0Z" class="cls-1"></path>
                  <path d="M65.5,73.7c-.6-.8-.8-2-.8-3.4-.5.2-2.2.5-3.4.4-1.2-.1-1.8-.3-3.2-.9-1.2.4-2.1.7-3.2,1.1-1.8.7-3.5,1.3-4.8,1.6-1.7.4-3.1.7-4.1.8.5,0,1.2.1,1.9.2,1.7,0,2.5.2,4.6.6,1.1.2,2.1,1,2.6,2.1.6,1.2.6,2.6,0,3.6v.3c-.5.7-1.1,1.7-.7,2,0,0,0,0,0,0,.5,0,2.1-1.1,3.5-2.1.6-.4,1.2-.8,1.7-1.2,2.2-1.4,5-3.1,7.3-3.9-.2,0-1.1-.4-1.6-1.1h0s0,0,0,0Z" class="cls-1"></path>
                </g>
                <path d="M83.6,93.3c2,.9,3.7.6,7.2,2.5,0,0-1.1-1-3.3-2.5-2.3-1.5-3.7-4.3-4.7-5.2,0,0,1.6.3,2.8.2,2.4-.3,2.3-2.1,2.3-2.1,0,0-1.6,0-2.7-.2-1-.2-2.8-.8-3.6-2.3,0,0,.8,0,1.6-.3,1.5-.5,1.5-2,1.5-2,0,0-.5.4-2.5,0-1.5-.4-3.6-1.4-4.4-2.9-.7-1.2-1.4-1.9-2-2.4-.3,0-.7,0-1,0s-.6,0-.9,0c1.8,2.1,2.7,5.2,2.7,5.4,0,0-1.6-2.7-2.4-3.8-.5-.8-1-1.4-1.4-1.9-.8-.4-1.4-.9-1.7-1.3,0,.1,0,.3-.2.4,0,.2-.2.3-.3.5.3.7.7,1.6,1.1,2.4,2.1,4.5,1.7,8.6,1.4,10.7,0,0,2.1.1,2.7-1.3.5-1.2-.1-2.9.2-2.3,1.1,2,.4,4,.7,6.3.4,2.8,2.7,3.2,2.7,3.2,0,0,.3-1.5,0-4,0-.3,1.8,2,4.4,3.2h0s0,0,0,0Z" class="cls-1"></path>
                <path d="M49.2,61.4c-3.1-1.7-3.1,1.9-3.1,1.9,0,0-2-1.5-1-3.4,1.3-2.4,5.3.9,5.3.9,0,0-1.1-1.7.1-3.3,0,0,1.5.8,2.2,4.4.5,2.5,1.1,3.4,1.1,3.4,0,0-2.9-3-4.6-3.9" class="cls-1"></path>
                <path d="M58.3,20.7c.6-2.2.3-5.3-1-5.5-.8-.1-1.7.3-2,.8-.2.4.4,1.2-.2,1.8-.5.5-1.3.9-2.3.6s-1-1.8-.7-2.8c0,0-.6.7-.7,1.3s.3,1,0,1.2c-.4.1-1.8-1.1-1.5-2.9.3-1.8,1.6-2.5,2.5-2.8,0,0,.2.4.7.8.5.4,1.6.3,1.6.3,0,0,.5.6,1.5.2.8-.3.8-1,.8-1,1.8.7,2.8,3.2,1.9,8.1h-.7c0-.1,0-.1,0-.1h0Z" class="cls-1"></path>
                <path d="M61.4,21.4c1.1-3.5,1.6-6.1,1.2-9.1-.4-3-1.7-3.8-1.7-3.8,0,0,0,0-.7,0-.7,0-1-.6-1-.6,0,0-.6.3-1.2-.1-.5-.4-.6-1.1-.6-1.1-2.2,0-3.5.4-4.2,1.4-.7,1-.9,2-.6,3.3.3,1.2,1.5,1.3,1.5,1.3-.3-.3,0-1.8,0-1.8,0,1.1.5,2.4,1.6,2.2.8-.1,1-2,1-2.7,0-.9,1-1.8,2.4-.8,1.4,1.1,1.8,3.1,1.8,3.1,0,0-.6-1.3-1.4-2.2s-1.9-1-2,0c-.2,1-.2,1.5-.2,1.5,3,1.5,2.8,5.2,2,8.8l2.1.5h0s0,0,0,0Z" class="cls-1"></path>
                <path d="M62.2,21.5h-.3c0,0,.6-1.9,1.1-4.4.5-2.5.6-5.7-1.1-8.8-.1-.2.7-.9,1.3.5.4,1,.8,2.5.7,5.1,0,.4.2.5.2-.8,0,0,0-3-.6-4.5-.6-1.4-1.4-2.2-1.6-2.2s.4.7-.8,1.2c-1.2.5-2.2,0-1.3-2.6.1-.4-.8.5-.9,2.4,0,.2-1.4-.2-.8-2.4.5-1.7,3.1-2.4,4.7-1.7,1.6.7,3.1,1.7,3.3,5.3l-3.9,13h0,0Z" class="cls-1"></path>
                <path d="M62.7,21.6c.2,0,.7.3,1.5.5.8.3,1.4.5,1.7.6,1.4-3,3.4-7,4.8-9,1.1-1.6,1.9-2.5,2.3-2.8-.1,0-.3,0-.5-.2-.4-.2-.6-.3-.8-.6-.1,0-.4.3-.8.7-.5.6-2.4,3.3-2.5,3.3h-.2c0-.2.9-2,1.7-3.3.6-.9,1.1-1.4,1.3-1.5,0,0,0-.2-.1-.4,0-.1,0-.3,0-.4-.4.2-1.5,1-2.7,4-.4,1-.9,2-1.3,3-.7,1.7-1.2,2.6-1.2,2.6h-.1c0-.1,0-.2,0-.3.2-.6,1.5-4.5,3-7.7,1.2-2.7,2.5-2.9,2.9-2.9s.4,0,.4.2c0,.1,0,.3,0,.4,0,.8,0,2,2,2.1,0,0,.1,0,.2,0,1.4,0,2.5-.8,2.6-2.1.2-1.3-.7-3-2.9-3.6-.4-.1-.8-.2-1.2-.2-3,0-5.4,3-6.3,5.9-.8,2.3-2.2,6.7-3.6,11.5h0Z" class="cls-1"></path>
                <path d="M66.3,23.2c2.8-6,5.7-10.3,8-12.4,0,0,.4,0,1.1-.3s.6-.4.6-.4c0,0,1.7-.3,3.4.5s2,2.2,2,3.2c0,0-.4-.4-.7-.5-.3-.1.4.5.5,1.1,0,.6-.2,1.1-.4,1.4,0,0-.2-.9-.6-1.4-.2-.2.2.5.2,1.1,0,.6-.2.9-.7,1.2-.3.2-1.4.5-2.9-.3,0,0,.8-.2.8-.8,0-.2-.8.7-1.7,0-.8-.6.3-1.7,0-1.7s-1.7,0-3.1,1.1c-1.4,1.1-1.9,1.9-2,2.2s1.6-1.4,2.3-1.9c1.3-.9,1.8-.5,1.8-.5-.2.5,0,.8.5,1.2,0,0-1.2,0-3,1.7-2.5,2.3-4.6,5.9-4.6,5.9l-1.3-.6" class="cls-1"></path>
                <path d="M68.1,24.1s-.1,0-.1,0c1.8-2.4,3.7-5,4.9-5.9,1.4-1.1,2.5-1.4,3.1-1.4,0,0,.4.6,1.4.8.9.2,1.3.2,1.3.2,0,0,1.9,1.7,1.5,3.5-.3,1.5-1.2,1.9-1.2,1.9,0,0,.2-.6,0-1.2,0-.5-.4-1-.4-1,0,0,.1,1.1,0,1.8-.3,1.1-.9,1.4-1.5,1.2-.2,0,.6-.5.7-2.1,0-1.2-.5-2.3-1.7-2.9,0,0,1.5,1.7,1.1,3.1-.4,1.4-.9,1.9-1.5,2-.7.2-1.2-.2-.8-.8.3-.5.4-.7.2-.9-.1-.2-.7,1.4-1.3.8-.7-.7.1-2.1,0-2.7s-.9-.7-1.6-.4c-1,.4-4.1,4-4.1,4" class="cls-1"></path>
                <path d="M72.8,20.6c.5,0,.2.6.2.6,0,0,0-.2-.6,0-.6,0-1.6.7-1.6.7,0,0,1.1-1.2,1.9-1.2" class="cls-1"></path>
                <path d="M79.8,69.3c.9-.8,2-2.3,2.6-3.7.7-1.7.2-2.9.2-2.9,0,0-.7,0-1.5.6-1,.8-1.3,1.2-1.4.8,0,0,.7-2,.2-3.8-.2-.9-.8-2-.8-2,0,0-1,.7-1.5,2-.6,1.7-.5,3.5-.5,3.5,0,0-.6-.5-.8-1.6-.4-1.4-1.2-1.7-1.2-1.7,0,0-1.4,2.2-.8,4.3.4,1.4-.4,4-2.1,4-1.1,0-2.1-.2-2.9-1.5-.7-1.1-.6-2.6-.6-2.6.8,1.3,2.2,2,2.2,2,0,0,.8-1.4,0-2.8-.4-.9-1-1.4-1.5-2.3-.4,1.2-1.2,2.3-1.2,2.3l-.2.2-.2-.2s-1-1.3-1.7-2l-1.1-1.1c-.2,1-.3,2.4-.3,2.5v.4s-.3-.2-.3-.2c0,0-.4-.3-1-.7-.2.6-.5,1.2-.6,1.7-.3,1.6.5,2.7.5,2.7,1.4-.4,1.6-2.5,1.6-2.5.4.5.4.8.4.8.6,1.5.1,3.4.3,5.7.2,2.3,1.5,2.5,1.5,2.5.4-.5.5-2.2.5-2.2.1-.8.6.8.6.8.6,1.8,1.7,1.9,1.7,1.9.4-.5.4-1.9.4-1.9,0,0,.4.4.9.9.6.7.7,1.4,2.4,1.8,1.1.3,2.6-.1,2.6-.1,0,0-.5-1.2-2-2.1,0,0,0,0,0,0,.5-.2,3.5,1.1,5.6,0,1.6-.8,1.8-2.1,1.9-2.8,0,0-1.3-.2-2.4,0-.4,0,.2-.4.6-.8h0s0,0,0,0ZM74.9,70.9c-.4.1-.8.1-1.2.1-1,0-2.1-.2-2.1-.2,0,0,1.6,0,3.1-.4,2.9-.7,3.9-5.6,3.9-5.7,0,0,.4,5-3.7,6.2h0Z" class="cls-1"></path>
                <g>
                  <path d="M56.4,58.9c-.3-.6-.5-1.3-.7-1.7-1.1.9-2.2,1.6-2.2,1.6h-.1c0,0-.1,0-.1,0,0,0-1.5-1.3-1.5-2.9,0-.3,0-.5,0-.7-.2.2-.5.4-.7.6-.2.3-.5.5-.8.8h0c0,0,1.7.5,2.6,3,.4,1.2.6,2.2.7,2.5.2.1.3.3.5.3,0-.4.2-1.1.7-1.6.8-.7,1.6-.7,2.3-.5-.2-.4-.5-.9-.8-1.4h0s0,0,0,0Z" class="cls-1"></path>
                  <path d="M61,60.8c-.5-.6-.9-1.3-1.1-1.7-.5.5-1.4,1.3-1.9,1.7l.4.4h-.2c0,.2-1.6,1.4-.7,3.1,0,.1.1.2.2.3,1.1,0,2.4,0,3.8,0,.2,0,.3,0,.5,0,.1-.9.4-1.7.7-2.3-.6-.5-1.2-1-1.6-1.5h0s0,0,0,0Z" class="cls-1"></path>
                </g>
                <g>
                  <path d="M58.4,30.5c-.7-.2-1.3-.8-1.6-1.5,0,0,0-.1,0-.2,0,0,0,0,0,0-.3.7-.6,1.6-.4,2.5,0,0,.2,0,.3,0,.7,0,1.3-.2,1.9-.8h0Z" class="cls-1"></path>
                  <path d="M63.7,33.5c0,0,.2,0,.3.1.4-.6.7-1.3.8-2.1-.6.4-1.4.5-2.2.3,0,.8.5,1.4,1.1,1.7h0Z" class="cls-1"></path>
                </g>
                <g>
                  <path d="M64.3,27.4c.4.2.7.4,1,.8.1.2.2.3.3.5.1.3.3.6.4.8.3-.5.3-1,.3-1.8,0,0-.5-.4-2-1,0,.2,0,.5,0,.7h0Z" class="cls-1"></path>
                  <path d="M57.7,26.3h0c.2-.1.3-.2.5-.3.4-.1.8-.2,1.3,0,0-.3.2-.6.4-.8-1.8-.5-2.5-.5-2.5-.5-.5.5-.7,1.1-.5,2,.3-.1.5-.2.8-.4,0,0,0,0,0,0Z" class="cls-1"></path>
                </g>
                <path d="M60.5,24.7c.2,0,.3-.2.5-.2,0,0,.1,0,.2,0,.9-.3,1.5-.9,1.5-.9l.3-.2v.3c.1,0,.3.8.9,1.5,0,0,0,0,.1.1.2.2.3.5.4.7,1.8.7,2.4,1.1,2.4,1.1,1-.8,1.4-1.5,1.2-2.5,0,0-1.1-.9-4.9-2.2-3.6-1.2-5-1.3-5-1.3-.6.6-1,1.3-.5,2.9,0,0,.9,0,3,.6h0s0,0,0,0Z" class="cls-1"></path>
                <path d="M76.4,35.3c.4-.2.6-.7.6-1.2,0,0,0,0,0,0,0-.6,0-1,0-1h0s-.5.1-1.1,0h0c0,0-.2,0-.3,0-.4,0-.8.3-1,.7,0,.1-.2.2-.4.2s-.3,0-.4-.2c0,0,0,0,0-.1-.2-.4-.7-.6-1.1-.5,0,0,0,0,0,0-.6,0-1,0-1,0h0s.1.5,0,1.1h0c0,.1,0,.2,0,.3,0,.3.2.6.5.8.1,0,.2.2.2.4s0,.2-.1.3c-1,1-2.1,1.4-2.9.9-1.1-.6-1.2-2.7-.2-4.6,0,0,0,0,0,0,.4-.1.7-.5.7-1s-.5-1-1-1-1,.5-1,1,0,.3.1.5c0,.1,0,.2-.1.3-1,2-3.1,3-4.6,2.2-1.1-.6-1.6-1.8-1.5-3.2h0c0-.3.2-.4.4-.4s.2,0,.2,0c.5.4,1.3.4,1.8,0,0,0,0,0,0,0,.6-.4,1.2-.5,1.2-.5h0s-.4-.5-.7-1.2h0c0-.1-.1-.2-.2-.3-.3-.3-.6-.6-1-.6h0c-.2,0-.4-.2-.4-.4s0-.1,0-.2h0c.3-.5.3-1.1-.1-1.6,0,0,0,0,0,0-.4-.6-.5-1.1-.5-1.1,0,0-.4.4-1.1.6,0,0,0,0-.1,0-.6.2-1,.7-1,1.3h0c0,0,0,.1,0,.2-.1.2-.4.2-.5,0h0c-.4-.2-.8-.2-1.2,0-.1,0-.2.1-.3.2h0c-.7.4-1.3.6-1.3.6h0s.4.4.7,1.1c0,0,0,0,0,.1.2.6.9,1,1.5,1,0,0,.2,0,.2,0,.2.1.2.3.1.5h0c-.7,1.3-1.8,2.1-3,1.9-1.7-.2-2.9-2.2-2.6-4.4,0-.1,0-.2,0-.3.2,0,.3-.2.4-.3.3-.5.2-1.1-.3-1.4-.5-.3-1.1-.2-1.4.2-.3.4-.2.9,0,1.2,0,0,0,0,0,0-.2,2.1-1.4,3.8-2.7,3.7-.9,0-1.6-1.1-1.9-2.4,0-.1,0-.2,0-.3,0-.1.3-.2.4-.2.3,0,.6-.2.9-.4,0,0,.1-.2.2-.3h0c.3-.6.7-.9.7-.9h0s-.4-.2-.8-.5c0,0,0,0,0,0-.3-.3-.8-.4-1.2-.2,0,0,0,0-.2,0-.1,0-.3,0-.4,0s-.2-.2-.2-.4c0-.4,0-.8-.4-1.1,0,0-.2-.1-.2-.2h0c-.5-.3-.9-.7-.9-.7h0s-.1.4-.5.9c0,0,0,0,0,0-.3.4-.4.9-.2,1.3,0,.2,0,.4,0,.5,0,.1-.2.2-.3.2h0c-.3,0-.5.2-.7.4,0,0-.1.2-.2.3h0c-.3.6-.6.9-.6.9h0s.4.2.8.5c0,0,0,0,0,0,.5.5,1.2.4,1.6,0,.1-.2.4-.2.6,0,0,0,.1.1.2.2h0c0,0,0,.1,0,.2.7,2.7,2.5,4.4,4.1,4.2,1-.1,1.8-.8,2.4-1.7h0c.3,1.2,1.1,2.2,2.3,2.7,1.6.7,3.4.2,4.7-1,.4,1.8,1.6,3.2,3.3,3.5,1.2.2,2.5-.2,3.4-1h0c0,1.1.3,2.2,1,2.8,1.3,1.1,3.6.7,5.8-1.1,0,0,0,0,0,0h0c0,0,.2-.1.3-.1.2,0,.4.2.4.4,0,.6.7,1.1,1.3,1,0,0,0,0,0,0,.6,0,1,0,1,0h0s-.1-.5,0-1.1h0c0-.1,0-.2,0-.3,0-.3-.2-.6-.4-.7h0c0-.2-.1-.3-.1-.4,0-.2.1-.4.3-.4h0s0,0,0,0ZM46.6,27.8c-.5,0-.8-.4-.8-.8s.4-.8.8-.8.8.4.8.8-.4.8-.8.8ZM60.3,28.8c0-.5.4-.9.9-.9s.9.4.9.9-.4.9-.9.9-.9-.4-.9-.9ZM74.3,36.5c-.4,0-.8-.4-.8-.8s.4-.8.8-.8.8.4.8.8-.4.8-.8.8Z" class="cls-1"></path>
                <path d="M49.2,35.5c0,.4-.3.7-.7.7s-.7-.3-.7-.7.3-.7.7-.7.7.3.7.7" class="cls-1"></path>
                <path d="M53.9,36.4c0,.4-.3.7-.7.7s-.7-.3-.7-.7.3-.7.7-.7.7.3.7.7" class="cls-1"></path>
                <path d="M59.4,37.8c0,.4-.3.7-.7.7s-.7-.3-.7-.7.3-.7.7-.7.7.3.7.7" class="cls-1"></path>
                <path d="M64.6,39.6c0,.4-.3.7-.7.7s-.7-.3-.7-.7.3-.7.7-.7.7.3.7.7" class="cls-1"></path>
                <g>
                  <path d="M51.6,36.7c-.6-.1-1-.2-1.5-.3.2-.1.3-.2.3-.4,0-.2-.1-.5-.4-.8-.1-.1-.2-.2-.3-.3.6.1,1.4.3,2.4.5-.2,0-.3.2-.5.3-.1,0-.2.2-.2.4,0,.2,0,.4.3.7h0,0Z" class="cls-1"></path>
                  <path d="M57.1,38.1c-1-.3-1.8-.5-2.5-.7,0,0,.1,0,.2,0,.2-.1.3-.2.3-.4,0-.2-.1-.5-.4-.8,0,0-.1,0-.1-.1,1,.3,2,.5,3,.8-.1,0-.3.1-.4.2-.1,0-.2.2-.2.4,0,.2,0,.5.3.7h0s0,0,0,0Z" class="cls-1"></path>
                  <path d="M62.1,39.6c-.7-.3-1.5-.5-2.2-.7.1,0,.2-.1.3-.2.2-.1.3-.2.3-.4,0-.2,0-.3-.2-.5.8.3,1.6.5,2.4.8-.2,0-.3.2-.5.3-.1,0-.2.2-.2.4,0,.1,0,.3.1.4h0s0,0,0,0Z" class="cls-1"></path>
                  <path d="M66.7,41.4c-.4-.2-1-.4-1.7-.7.2,0,.3-.2.4-.2.2-.1.3-.2.3-.4,0-.1,0-.2,0-.4.9.4,1.6.7,2,.9,0,0-.2,0-.2.1-.2,0-.3.2-.5.3-.2,0-.2.2-.2.4h0Z" class="cls-1"></path>
                </g>
                <path d="M69.3,41.5c0-.4-.3-.6-.7-.6s-.7.3-.7.7h.7c.5,0,.8,0,.8,0" class="cls-1"></path>
                <path d="M65.6,41.7c-1.9-.8-4.5-1.8-7.7-2.7-6.1-1.8-9.4-2.2-9.8-2.3-.7,0-.9.6-.2.8.6.1,3.5.4,9.8,2.2,2.5.7,4.6,1.5,6.3,2.1,0,0,.3,0,.6-.1.3,0,1.1,0,1.1,0" class="cls-1"></path>
                <polyline points="57.7 34.8 57.7 34.8 57.7 34.8 57.7 34.8" class="cls-1"></polyline>
                <path d="M60.7,35.7h0c-.7-.9-1-1.7-1-1.7,0,0-.2.3-1.7.7h0c-.1,0-.2,0-.3,0,.3,0,.5.2.8.2.8.2,1.5.5,2.2.7" class="cls-1"></path>
                <path d="M51.3,113.8s.6.4.9.9c0,0,.3.1.7.2.5,0,.6.1.6.1,0,0-.8-.9-2.2-1.2" class="cls-1"></path>
                <path d="M126.4,38.1c-.2,0-.4,0-.6.2h0l-23.9,18c1.4.4,2.9.5,4.3.3h.4c0,0,0,.4,0,.4,0,0-.3,2.1-1.7,3.2-.6.4-1.3.6-2.1.6.2.5.4,1.5.5,2.8,0,1.4-.4,2.4-.5,2.8,0,.1.2.3.5.4.2,0,.4,0,.7,0,.9-.4,1.4-1.2,1.4-1.2l.4-.6.2.7c.6,2,.5,3.8-.3,5.1-.6,1-1.5,1.5-2.7,1.7-2,.3-3.2-.8-3.7-1.4-.6.7-2.1,2.3-4.3,2.9-1.2.3-2.1.7-2.8,1.1v2.8s0,0,0,0c.2,0,.7-.4.7-1.1s-.3-1.9-.3-1.9c0,0,2.6,0,3.2,2.3.4,1.5-.2,2.8-1,3.6,0,0-.3.3-.3.3-.6.5-1.5.9-2.4,1v5.8c.7-.9.8-1.8.9-2.7,0-.3,0-.6.1-.8,0-.3.2-.7.3-1,.5-1.4,1.2-2.3,1.2-2.3,0,0,.9.3,1.4.8.4.3.7.8,1,1.4.2.5.3,1,.3,1.4,0,0,.1-.2.2-.3.8-1.1,2-1.7,3.5-1.7s1.9.3,2,.3h.2c0,0,0,.4,0,.4,0,.9-.3,1.6-.6,2,.3,0,.6,0,1,0,.9,0,2,.1,3.1.4,5.9,1.5,7.7,6.3,7.3,10.2-.3,3.4-1.7,4.6-3,5.8-.5.4-.9.9-1.4,1.4-.2.2-.2.5-.2.7,0,.2.3.3.5.3.7,0,1.3-1.5,1.4-2l.2-.5.4.4c.6.5,1.5,1.7,1,3.5-.4,1.8-1.8,2.9-3.6,2.9s-2-.3-2.7-.9c-1.1-.8-1.5-1.7-1.6-2.2l-.7.4c.4.4,1,1,1,2,0,.9-.2,1.7-.8,2.3-.6.7-1.5,1-2.5,1s-2.1-.5-2.8-1.4c-.7-.9-1-2-.9-3,.2-1.7,1.6-3.1,2.3-3.7-1.1-.7-1.7-1.7-1.6-3,0-1.4,1-2.7,2.3-3.1.5-.2,1-.3,1.5-.3,1.8,0,2.6,1.2,2.6,1.3l.2.4h-.4c0,.1-.1.1-.2.1-.7.1-1.5.3-1.5.9,0,.2,0,.4.2.5.2.2.6.3,1,.3.7,0,1.4-.3,2.1-.7,2.3-1.6,2.8-4.1,2.9-4.6-.2-.4-1.3-2.2-3.6-3.3-1-.5-2-.7-3-.7s-1.1,0-1.5.2c1.2.8,1.4,2.3,1.2,3.1v.2s-.2,0-.2,0c0,0-1.3.5-2.8.5s-1.6-.1-2.3-.4c-1-.4-1.8-.6-2.4-.6.8.8,1.3,1.8,1.4,2.9,0,.9-.2,2.2-1.6,3.4h0c0,0-.1,0-.1,0-.2,0-.3,0-1.3-1.3-.4-.5-.9-1.1-1.2-1.4,0,0-.1-.2-.2-.2v46.9h0c0,.6.5,1.1,1.1,1.1h33.3c.6,0,1.1-.5,1.1-1.1V39.2h0c0-.6-.5-1.1-1.1-1.1h0Z" class="cls-1"></path>
                <path d="M71.2,76.4c0-.1,0-.3-.2-.4l.2.4Z" class="cls-1"></path>
                <path d="M69.7,75.4c-.5,0-1.1,0-2.5.3-1.4.4-3.6,1.3-5.2,2.4-3.6,2.6-6.3,5.2-8.1,5.1-.7,0-.8-1.1,0-2.9,0,0-2.3,2.2-1.4,3.4.9,1.3,3.4.4,5.8-1.4,3.5-2.6,5.3-4.8,8.7-5.8,1.8-.5,2.8-.5,3.3-.4l-.4-.7s-.1,0-.3-.2h0s0,0,0,0Z" class="cls-1"></path>
                <path d="M49.7,50.8s-1.6-1.4-3.4-1.7-2.8.3-2.8.3c0,0,1.4-.1,2.5.1,1,.3,1.7.6,2.2,1.1l1.5.2h0Z" class="cls-1"></path>
                <path d="M66,36.9c-.1,0-.3.2-.5.2-.2,0-.4.1-.6.2.5.2,1,.4,1.4.6-.1-.3-.3-.6-.3-1Z" class="cls-1"></path>
                <path d="M53,33.2c-.1-.2-.2-.3-.3-.5-.3.2-.5.4-.8.6.5,0,1,.2,1.5.3-.2-.2-.3-.4-.4-.5h0Z" class="cls-1"></path>
                <path d="M69.1,39.7l-2.1-1c-.9-.4-2-.8-3.4-1.3l-2.4-.9c-.9-.3-1.8-.6-2.8-.9-.5-.2-1-.3-1.5-.4l-2.5-.7c-1.3-.3-2.5-.6-3.3-.8,0,0-2.5-.4-2.5-.4-.7,0-.9.6-.2.8.6.1,3.5.4,9.8,2.2,6.3,1.8,10.3,3.8,10.7,4,.5.3.8-.2.3-.6h0s0,0,0,0Z" class="cls-1"></path>
              </g>
              <path d="M72.2,55.7c-.5-.8-.7-2-.7-2-.5.1-.6.5-2.3.3-1.7-.2-1.8-1.4-1.8-1.4,0,0,.5.6,1.5.8s1.8-.2,2.9-.6c1.1-.4,2.8,0,2.8,0,0,0,0-1.2-1.6-1.8-1.2-.5-2.3-.2-2.3-.2,1.2-2.1,4.1-2,4.1-2-.9-.7-1.6-.2-3.5-.4-1.5-.1-2-.9-2.1-1.2-1.6,0-3.4-.5-3.7-.8,0,0,.8.2,2.2.2,1.5,0,3.5,0,5.1-1.8,1.1-1.1,1.8-2.6,1.8-4.5-.2.2-.4.4-.8.7-.9.5-1.8.9-4.4,1.1-.5,0-4.3-.1-5.4.5-.6.4-1,1-1,1,0,0-.4-.5,0-1.3-1.2-.5-3.8-1.5-7.6-2.5-4-1.1-6.5-1.5-7.6-1.6h0c-.7.5-1.2.9-1.6,1.9-.5,1.1.2,2,.8,2.1.8,0,.5.4.2.4-.3,0-.5,0-.8,0-1.6,0-4.3-.4-6,.8-1,.7-1.6,2.3-1.2,4,.3,1.2.8,1.7.8,1.7,0,0,.8-1.7,3.4-1.6,1.7,0,3.3.6,5.9,2.2,1.6,1,2.2,1.8,2.2,1.8,0,0-2.9-.1-5-.6-2.3-.5-3.6,0-3.6,0,0,0,2.4.6,5,1.5,2,.7,5,1.3,7.6.8,0,0,0,0,0,0,0,0,0,.7-2.7.8-1,2.3.4,3.5.4,3.5,2.3-1.3,3.6-3.1,3.6-3.1,0,.8-.7,1.6-.7,1.6.6,1.8,1.4,3.6,1.5,3.5.7-.5,1.2-.9,1.8-1.8.5-.7.7-1.6.8-2h0c-.3-.3-.4-.9-.3-1.2,0-.3.4-.8.4-.8,0,0,.1.7.4,1.2s.7.9.8,1.2c1.2-1.1,1.2-3,1.1-3.9,0-.2-.2-.8-.2-.8,0,0,.3.2.5.6.2.6.8,2.4-.2,4-.6.9-1.1,1.5-1.1,1.5h-.1c0,.1,0,0,0,0-.3-.6-.5-.8-.7-1.1-.2.7-.5,1.5-.4,1.9.6,2,3.4,3.9,3.4,3.9,0-1.2.2-1.8.3-2.2,0-.1-.2-.2-.2-.4-.7-1-.7-2.8-.8-2.9h0c0-.1.7,1.8,2,3.4,0,0,0,0,0,0,1.2,1.2,2.6,2.8,2.6,2.8,1.4-2,0-6.4,0-6.4,1.3,1.5,1.1,2.4,2.2,3.7.8,1,1.5,1.5,1.5,1.5,0,0,.5-.9.2-1.9-.3-.9-.2-1.5-.2-1.5,1.9-.6,2.8.6,2.8.6.7-1.7-1.6-2.4-2.2-3.2h0,0ZM43.9,43.6c-.4.3-.3.7-.3.7,0,0-.9-.3-.6-.8.3-.6,1.3-.4,2-.2.7.2,1.4.7,1.4.7,0,0-1.9-.8-2.5-.4h0s0,0,0,0ZM50.8,43.4c-.1.2-.7,1.1-1.9,1-.2,0-.4,0-.6-.2.5,0,.8-.5.8-1,0-.4-.3-.6-.6-.7.2,0,.3,0,.6,0,0,0,1.7,0,3.1,1.4,0,0-.6-.2-1.3-.5h0ZM63.7,45.9s-.6-1.6,2.1-1.9c2.8-.3,6-.8,7-1.6,0,0-.2.7-1.3,1.1-1.1.4-4.4,1-5.7,1.3-1.3.3-1.4.7-1.4.7l.9.3s-1.5.2-1.8.2h0s0,0,0,0Z" class="cls-1"></path>
              <path d="M80.6,116.3c-.7-.8-1.7-2.2-3.5-2.9s-5-.7-6.6-1.1c-1.6-.3-2.7-.9-2.9-1.2,0,0,1.1.3,2.4.4,1.3,0,2.8-.3,4.8-1.1,1.1-.4,3.4-1.2,4-2.5-.2.1-1.8,1-3.8.8-1.9-.2-2.7-1-4.6-1.1-2.6-.2-3.3,0-3.9.2-.6.3-.8.7-.8.7,0,0-.3-.7.1-1.2,0,0-1.3-.6-3.6-1.4s-3.7-1.3-6.2-2c-2.1-.6-3.5-.8-3.5-.8-.8.8-1,1.8-.6,2.1.1.1.4.3.3.6-.1.4-.4.4-.8.3-1.8-.2-5.2-.7-7.2.3-1.1.6-2,2.2-1.7,3.9.2,1.2.8,2.3.8,2.3,0,0,1.1-2,4-1.6,2.2.3,3.7.8,5.5,2.3,1.6,1.3,1.9,2.4,1.9,2.4,0,0-1.6.1-4.4-.8-1.9-.6-3.5-.2-3.5-.2,0,0,2.7.4,4.6,1.3,3.8,1.7,5.3.9,5.3.9,0,0,.2.3.3.6.1.4,0,.8,0,.8,0,0-.5-.6-1.3-.6s-1.6,0-2.9-.5c0,0-.5.7-1.1,1.2-1.2,1-2.6,2.1-2.5,3.7,0,1.6,1.1,2.9,1.1,2.9-.5-1.9.8-3.4,2.6-4.2,0,0-.2.8-.4,2.1-.2,1.6-.2,2.9.5,3.8.8,1,1.7,1.5,1.7,1.5,0,0-.4-1.2.4-2.6.4-.7,1.2-1.4,2.1-1.9.1-.8.7-1.5,1.1-2.2.3-.4.5-.7.6-1,.4-.9.3-2.1.3-2.1v-.4s.2.3.2.3c0,0,.6.8,0,2.7-.2.6-.4.9-.6,1.1-.2.3-.4.6-.7,1.4-.3.8-.3,1.7-.2,2.4,0,.2,0,.4.1.6.5,1.7,1.1,2.4,1.3,3.3.2.9.2,1.3.2,1.3,0,0,1.5-.6,2.5-1.9.8-1.1.8-4,.8-4,0,0,.8,1.3,1.9,2.6,1.1,1.3,2.2,2.6,2,4.1,0,0,1.1-.6,1.9-2.2.6-1.3,1-2.4.9-3.8-.2-.1-.5-.2-.7-.4-1-.8-1.5-1.6-1.7-2.1,0,0,0,0,0,0-.5.8-1,1.4-1,1.4h-.1c0,.1,0,0,0,0-.3-.5-.7-.9-1-1.2-.2-.2-.4-.4-.6-.6-1.5-1.9-.8-3.4-.8-3.4h0c.8,2.8,2.2,3.7,2.5,3.9,1.3-1,1.2-2.5,1.2-3.2,0-.2,0-.3,0-.4h0c.1-.1.2,0,.4.5,0,.1,0,.2,0,.3,0,.4.2.9-.1,1.7.2.4.5,1,1.1,1.6.6.5,1.2.9,1.7,1.2.7.3,1.6.7,2.3,1.4,1,1,1.6,1.9,1.9,2.8,0,0,.9-.4,1-2,0-1.6-.5-3.8-1.3-5.4,0,0,1.4,0,2.4.7.9.7,1.3,1.4,1.3,1.4,0,0,.6-.7.4-2-.2-1.1-.9-2.4-1.6-3.3h0c-.1-.1-.2-.3-.3-.4,0,0,0,0,0,0-.1-.2-.3-.3-.4-.5-.9-.9-2.3-1.6-2.3-1.6,0,0,1.8.3,2.7.9,1.1.7,1.4,1.3,1.4,1.3.5,0,1.1,0,1.8-.1,1.8-.3,2.6-1.6,3-2.5,0,0-1.3.7-2,0h0s0,0,0,0ZM48.9,107.3c-.4.2-.3.5-.3.5v.3c0,0-.2-.1-.2-.1,0,0-.6-.3-.7-.6,0-.1,0-.3.1-.4.5-.6.9-.6,1.7-.3.8.3,1.3,1.1,1.3,1.1,0,0-1.2-.7-1.9-.4h0s0,0,0,0ZM55.2,107.2c-.3.3-.9.9-1.9.7-.2,0-.4-.1-.6-.2.5,0,.8-.4.9-.9,0-.4-.3-.7-.7-.8.2,0,.4,0,.7,0,0,0,1.5.1,2.5,1.9,0,0-.4-.3-.9-.6h0ZM66.4,109.4h0c0-.1,0-.6.4-.9.4-.3,1.1-.4,2.1-.1,3.2.9,5.2,1.2,6.1,1h.4c0-.1-.3.2-.3.2,0,0-.4.5-1.4.5h0c-.7,0-2.4-.3-3.7-.6h-.2s.2.6.2.6l-1.4-.9c-.5,0-.8,0-1,0l.5.4v.2c-.2,0-1.4-.3-1.6-.4h0s0,0,0,0Z" class="cls-1"></path>
            </g>
            <g>
              <path d="M293.6,102.2c-.6-13.6-1.3-30-1.3-44.4h-.4c-3.5,12.9-7.9,27.2-12.5,40.5l-15.5,45.7h-14.8l-14-45.1c-4.1-13.5-7.9-27.9-10.7-41.2h-.3c-.5,13.8-1.1,30.7-1.9,45.1l-2.3,42.5h-18l7-105.6h25.3l13.8,42.4c3.8,12.5,7.2,25,9.7,36.8h.5c2.8-11.5,6.5-24.4,10.6-36.9l14.6-42.3h25l6.1,105.6h-18.8l-2-43.1" class="cls-1"></path>
              <path d="M378.2,118.5c0,1.3-.1,2.9-.5,4.2-1.8,5.6-7.4,10.6-15.1,10.6s-11-3.5-11-11c0-11.6,13-14.5,26.6-14.3v10.5M397,99.5c0-16.7-7-32.2-31.4-32.2s-21.9,3.3-27.6,6.8l3.8,12.5c5.2-3.3,13-5.7,20.5-5.7,13.5,0,15.5,8.3,15.5,13.3v1.3c-28.1-.1-45.2,9.6-45.2,28.9s8.6,22.7,24,22.7,17.9-4.2,22.5-10.2h.5l1.3,8.5h17.4c-.8-4.7-1.2-11.5-1.2-18.4v-27.5h0s0,0,0,0Z" class="cls-1"></path>
              <rect height="111.2" width="19.3" y="34.1" x="421.3" class="cls-1"></rect>
              <path d="M465.3,91.7c0-8.8-.3-16.1-.6-22.7h16.5l.9,11.2h.5c3.7-5.9,10.6-12.9,23.5-12.9s17.9,5.6,21.2,14.1h.3c2.7-4.2,5.9-7.4,9.3-9.6,4.3-2.9,9.1-4.5,15.5-4.5,12.6,0,25.5,8.6,25.5,33.1v44.9h-18.8v-42.2c0-12.7-4.4-20.2-13.6-20.2s-11.4,4.6-13.4,10.1c-.6,1.8-1,4.3-1,6.4v45.8h-18.8v-44.1c0-10.7-4.3-18.3-13.2-18.3s-12.1,5.7-13.9,10.9c-.7,1.9-1,4.2-1,6.4v45.1h-18.8v-53.6" class="cls-1"></path>
              <path d="M634.1,133c-11.5,0-18.8-11.1-18.8-25.8s5.6-25.9,19.1-25.9,18.6,13.7,18.6,25.7-7.7,26-18.7,26h-.2M619.2,59c5.3,0,9-4.3,9-9.4s-3.9-9.4-9-9.4-9.5,4.1-9.5,9.4,3.9,9.4,9.3,9.4h.2,0ZM649.6,59c5.4,0,9.2-4.3,9.2-9.4s-3.9-9.4-9.1-9.4-9.4,4.1-9.4,9.4,3.8,9.4,9.2,9.4h.2ZM633.9,147c19.3,0,39-12.6,39-40.6s-15.2-39.1-37.9-39.1-39.5,15.4-39.5,40.4,16.7,39.3,38.2,39.3h.2,0Z" class="cls-1"></path>
              <path d="M721.9,127.6c4.3,2.6,12.6,5.6,19.5,5.6s12.3-3.5,12.3-8.5-3.1-7.8-12.5-11.1c-14.9-5.1-21.1-13.2-21.1-22.3,0-13.4,11.1-23.9,28.9-23.9s15.8,2.1,20.2,4.6l-3.8,13.5c-3.2-1.8-9.4-4.4-16.1-4.4s-10.7,3.4-10.7,8.1,3.7,7.2,13.3,10.7c13.9,4.9,20.3,12,20.3,23.2,0,13.9-10.8,24-31,24s-17.6-2.2-23.2-5.3l3.9-14" class="cls-1"></path>
              <path d="M814.1,49.5v19.6h18.4v14.4h-18.4v33.6c0,9.4,2.5,14.1,9.9,14.1s5.3-.2,7.5-.8l.4,14.7c-2.9,1.1-8,2-14,2s-13-2.4-16.6-6.3c-4.1-4.4-6-11.4-6-21.4v-35.9h-10.9v-14.4h10.9v-14.2l18.9-5.4" class="cls-1"></path>
              <path d="M891.3,118.5c0,1.3-.1,2.9-.5,4.2-1.8,5.6-7.4,10.6-15.1,10.6s-11-3.5-11-11c0-11.6,13-14.5,26.6-14.3v10.5M910.1,99.5c0-16.7-7-32.2-31.5-32.2s-21.9,3.3-27.6,6.8l3.8,12.5c5.2-3.3,13-5.7,20.5-5.7,13.5,0,15.5,8.3,15.5,13.3v1.3c-28.1-.1-45.2,9.6-45.2,28.9s8.6,22.7,24,22.7,17.8-4.2,22.5-10.2h.5l1.3,8.5h17.4c-.9-4.7-1.2-11.5-1.2-18.4v-27.5h0s0,0,0,0Z" class="cls-1"></path>
              <path d="M982.1,112.2c0,2-.1,3.9-.6,5.6-1.9,8.3-8.8,13.7-16.7,13.7-12.2,0-19.1-10.2-19.1-24.3s6.9-25.1,19.3-25.1,14.9,6.1,16.6,13.5c.3,1.6.4,3.5.4,5v11.4M982.1,34.1v43.2h-.3c-3.4-5.6-10.9-9.9-21.4-9.9-18.3,0-34.3,15.2-34.2,40.7,0,23.4,14.4,39,32.6,39s20.2-5.3,24.8-13.8h.3l.9,12.1h17.2c-.4-5.2-.6-13.6-.6-21.4V34.1h-19.3Z" class="cls-1"></path>
            </g>
          </g>
        </g>
      </g>
    </g>
  </g>
</svg>